<?xml version="1.0" encoding="UTF-8" standalone="no"?>
<!-- Created with Inkscape (http://www.inkscape.org/) -->

<svg
   width="210mm"
   height="297mm"
   viewBox="0 0 210 297"
   version="1.1"
   id="svg1"
   xml:space="preserve"
   inkscape:version="1.3 (0e150ed6c4, 2023-07-21)"
   sodipodi:docname="logos.svg"
   xmlns:inkscape="http://www.inkscape.org/namespaces/inkscape"
   xmlns:sodipodi="http://sodipodi.sourceforge.net/DTD/sodipodi-0.dtd"
   xmlns="http://www.w3.org/2000/svg"
   xmlns:svg="http://www.w3.org/2000/svg"><sodipodi:namedview
     id="namedview1"
     pagecolor="#ffffff"
     bordercolor="#000000"
     borderopacity="0.25"
     inkscape:showpageshadow="2"
     inkscape:pageopacity="0.0"
     inkscape:pagecheckerboard="0"
     inkscape:deskcolor="#d1d1d1"
     inkscape:document-units="mm"
     inkscape:zoom="0.79560784"
     inkscape:cx="304.7984"
     inkscape:cy="582.57344"
     inkscape:window-width="1920"
     inkscape:window-height="1009"
     inkscape:window-x="-8"
     inkscape:window-y="296"
     inkscape:window-maximized="1"
     inkscape:current-layer="layer1" /><defs
     id="defs1"><clipPath
       clipPathUnits="userSpaceOnUse"
       id="clipPath2"><rect
         style="fill:#ff0000;fill-opacity:0.36036;stroke-width:0.7;stroke-linecap:round;paint-order:markers fill stroke"
         id="rect3"
         width="75.504646"
         height="72.673164"
         x="-180.57011"
         y="278.42328" /></clipPath><clipPath
       clipPathUnits="userSpaceOnUse"
       id="clipPath3"><rect
         style="fill:#ff0000;fill-opacity:0.36036;stroke-width:0.7;stroke-linecap:round;paint-order:markers fill stroke"
         id="rect4"
         width="75.504646"
         height="72.673164"
         x="-20.634834"
         y="246.07805" /></clipPath></defs><g
     inkscape:label="Layer 1"
     inkscape:groupmode="layer"
     id="layer1"><g
       id="g51"
       transform="translate(-86.079211,16.505109)"
       inkscape:export-filename="..\src\ampworks\dqdv\gui_files\assets\logo.png"
       inkscape:export-xdpi="100"
       inkscape:export-ydpi="100"><g
         id="g145"
         transform="matrix(0.7457208,0,0,0.7457208,36.200763,50.837405)"
         style="stroke-width:1.34098"><path
           id="path2"
           style="fill:#306998;fill-opacity:1;stroke-width:0.938689;stroke-linecap:round;paint-order:markers fill stroke"
           d="m 159.32311,238.50115 a 18.432854,18.432854 0 0 0 0.98754,0.21497 18.432854,18.432854 0 0 0 2.62309,0.18759 18.432854,18.432854 0 0 0 0.90434,-0.0222 18.432854,18.432854 0 0 0 0.90227,-0.0667 18.432854,18.432854 0 0 0 0.89814,-0.11058 18.432854,18.432854 0 0 0 0.89142,-0.15452 18.432854,18.432854 0 0 0 0.18603,-0.0419 v -1.99523 a 16.532999,16.532999 0 0 1 -1.19579,0.28732 16.532999,16.532999 0 0 1 -2.58641,0.2036 16.532999,16.532999 0 0 1 -2.5864,-0.2036 16.532999,16.532999 0 0 1 -1.02423,-0.24598 z" /><path
           id="path3"
           style="fill:#306998;fill-opacity:1;stroke-width:0.938689;stroke-linecap:round;paint-order:markers fill stroke"
           d="m 175.28906,231.39512 a 16.532999,16.532999 0 0 1 -1.30328,1.33274 16.532999,16.532999 0 0 1 -1.57665,1.2609 16.532999,16.532999 0 0 1 -1.71824,1.05937 16.532999,16.532999 0 0 1 -1.83503,0.84181 16.532999,16.532999 0 0 1 -0.88108,0.28008 v 1.99885 a 18.432854,18.432854 0 0 0 1.264,-0.37931 18.432854,18.432854 0 0 0 1.96836,-0.84956 18.432854,18.432854 0 0 0 1.85622,-1.0728 18.432854,18.432854 0 0 0 1.71927,-1.28106 18.432854,18.432854 0 0 0 0.50643,-0.47801 z" /><path
           id="path6"
           style="fill:#306998;fill-opacity:1;stroke-width:0.938689;stroke-linecap:round;paint-order:markers fill stroke"
           d="m 148.75166,232.20592 1.04128,-1.74252 a 16.532999,16.532999 0 0 1 -0.9834,-1.49707 l -0.89349,2.12287 a 18.432854,18.432854 0 0 0 0.83561,1.11672 z" /><path
           id="path9"
           style="fill:#306998;fill-opacity:1;stroke-width:0.938689;stroke-linecap:round;paint-order:markers fill stroke"
           d="m 151.19492,234.60474 1.35083,-1.35909 a 16.532999,16.532999 0 0 1 -0.9493,-0.78599 l -1.17771,1.48879 a 18.432854,18.432854 0 0 0 0.77618,0.65629 z" /><path
           id="path10"
           style="fill:#306998;fill-opacity:1;stroke-width:0.938689;stroke-linecap:round;paint-order:markers fill stroke"
           d="m 181.10834,217.4275 -1.69085,2.41587 a 16.532999,16.532999 0 0 1 0.0496,0.62735 16.532999,16.532999 0 0 1 -16.53336,16.53284 16.532999,16.532999 0 0 1 -10.38799,-3.75791 l -1.35083,1.35909 a 18.432854,18.432854 0 0 0 11.73882,4.29897 18.432854,18.432854 0 0 0 18.43299,-18.43299 18.432854,18.432854 0 0 0 -0.25838,-3.04322 z" /><path
           id="path11"
           style="fill:#360000;fill-opacity:1;stroke-width:0.938689;stroke-linecap:round;paint-order:markers fill stroke"
           d="m 180.47531,214.82352 -1.42265,2.18333 a 16.532999,16.532999 0 0 1 0.36483,2.83652 l 1.69085,-2.41587 a 18.432854,18.432854 0 0 0 -0.63303,-2.60398 z" /><path
           id="path12"
           style="fill:#4b8bbe;fill-opacity:1;stroke-width:0.938689;stroke-linecap:round;paint-order:markers fill stroke"
           d="m 167.97478,202.74576 a 18.432854,18.432854 0 0 0 -5.04104,-0.70797 18.432854,18.432854 0 0 0 -18.43246,18.43299 18.432854,18.432854 0 0 0 3.41477,10.61847 l 0.89349,-2.12287 a 16.532999,16.532999 0 0 1 -2.40864,-8.4956 16.532999,16.532999 0 0 1 16.53284,-16.53285 16.532999,16.532999 0 0 1 5.04104,0.8351 z" /><path
           id="path13"
           style="fill:#4b8bbe;fill-opacity:1;stroke-width:0.938689;stroke-linecap:round;paint-order:markers fill stroke"
           d="m 167.97478,202.74576 v 2.02727 a 16.532999,16.532999 0 0 1 7.31428,4.80797 v -2.7373 a 18.432854,18.432854 0 0 0 -7.31428,-4.09794 z" /><path
           id="path14"
           style="fill:#306998;fill-opacity:1;stroke-width:0.938689;stroke-linecap:round;paint-order:markers fill stroke"
           d="m 152.41242,233.3795 a 16.532999,16.532999 0 0 0 0.80357,0.63355 16.532999,16.532999 0 0 0 2.21227,1.35547 16.532999,16.532999 0 0 0 2.39675,0.99271 16.532999,16.532999 0 0 0 0.004,0.001 v -3.11764 l -2.98896,-2.30684 z" /><path
           id="path15"
           style="fill:#306998;fill-opacity:1;stroke-width:0.938689;stroke-linecap:round;paint-order:markers fill stroke"
           d="m 157.82863,230.99515 -3.06751,-2.53473 -3.25355,4.11189 a 16.532999,16.532999 0 0 0 0.90485,0.80719 l 2.42724,-2.44172 2.98897,2.30684 z" /><path
           id="path17"
           style="fill:#4b8bbe;fill-opacity:1;stroke-width:0.938689;stroke-linecap:round;paint-order:markers fill stroke"
           d="m 157.82863,224.67357 v -9.45627 h -7.07864 v 9.13691 l 2.04484,-4.86017 z" /><path
           id="path18"
           style="fill:#306998;fill-opacity:1;stroke-width:0.938689;stroke-linecap:round;paint-order:markers fill stroke"
           d="m 157.82863,224.67357 -5.0338,-5.17953 -2.04484,4.86017 v 4.50722 l 2.98896,-5.00228 4.08968,3.06751 z" /><path
           id="path19"
           style="fill:#306998;fill-opacity:1;stroke-width:0.938689;stroke-linecap:round;paint-order:markers fill stroke"
           d="m 159.20529,234.3076 v 2.77555 a 16.532999,16.532999 0 0 0 1.02423,0.24598 16.532999,16.532999 0 0 0 2.5864,0.2036 16.532999,16.532999 0 0 0 2.58641,-0.2036 16.532999,16.532999 0 0 0 1.19579,-0.28733 v -12.7155 l -5.89887,11.13421 z" /><path
           id="path20"
           style="fill:#306998;fill-opacity:1;stroke-width:0.938689;stroke-linecap:round;paint-order:markers fill stroke"
           d="m 166.59812,221.31253 -0.23565,-0.1664 -5.93813,11.9941 -1.21905,-1.00717 v 2.17454 l 1.49396,1.15291 5.89887,-11.13421 z" /><path
           id="path21"
           style="fill:#4b8bbe;fill-opacity:1;stroke-width:0.938689;stroke-linecap:round;paint-order:markers fill stroke"
           d="m 166.59812,213.71971 -2.04484,-1.57923 -5.34799,10.92802 v 3.68401 l 5.85907,-11.93777 1.53376,0.99839 z" /><path
           id="path22"
           style="fill:#4b8bbe;fill-opacity:1;stroke-width:0.938689;stroke-linecap:round;paint-order:markers fill stroke"
           d="m 159.20529,208.02911 v 15.03939 l 5.34799,-10.92802 2.04484,1.57923 v -5.6906 z" /><path
           id="path25"
           style="fill:#4b8bbe;fill-opacity:1;stroke-width:0.938689;stroke-linecap:round;paint-order:markers fill stroke"
           d="m 175.28906,211.19635 -5.70198,0.11834 -1.06195,3.89331 -0.55035,-0.4253 v 1.92598 l 3.73569,2.43138 z" /><path
           id="path35"
           style="fill:#306998;fill-opacity:1;stroke-width:0.938689;stroke-linecap:round;paint-order:markers fill stroke"
           d="m 167.97478,224.31597 v 11.97911 a 16.532999,16.532999 0 0 0 0.88108,-0.28009 16.532999,16.532999 0 0 0 1.83503,-0.8418 16.532999,16.532999 0 0 0 1.71824,-1.05937 16.532999,16.532999 0 0 0 1.57665,-1.26091 16.532999,16.532999 0 0 0 1.30328,-1.33273 v -5.77898 l -1.84846,2.64067 z" /><path
           id="path36"
           style="fill:#306998;fill-opacity:1;stroke-width:0.938689;stroke-linecap:round;paint-order:markers fill stroke"
           d="m 175.28906,222.78376 -2.08411,3.19929 -5.23017,-3.69693 v 2.02985 l 5.46582,4.0659 1.84846,-2.64067 z" /><path
           id="path43"
           style="fill:#4b8bbe;fill-opacity:1;stroke-width:0.938689;stroke-linecap:round;paint-order:markers fill stroke"
           d="m 167.97478,201.09723 v 13.68547 l 0.55035,0.4253 1.06195,-3.89331 5.70198,-0.11834 v -10.09912 z" /><path
           style="fill:#4b8bbe;fill-opacity:1;stroke-width:0.938689;stroke-linecap:round;paint-order:markers fill stroke"
           d="m 144.34004,239.58948 8.45494,-20.09524 5.42689,5.58419 6.33138,-12.93803 3.97186,3.06738 1.06178,-3.89321 5.70218,-0.11798 -3.57861,7.94372 -6.64598,-4.32579 -6.29205,12.82006 -5.03364,-3.77523 z"
           id="path44"
           sodipodi:nodetypes="cccccccccccc" /><path
           style="fill:#306998;fill-opacity:1;stroke-width:0.938689;stroke-linecap:round;paint-order:markers fill stroke"
           d="m 144.84452,240.99367 9.91673,-12.53326 5.66284,4.67971 5.93813,-11.99422 6.8426,4.83701 9.55606,-14.66834 -6.09543,-4.48309 8.61225,4.64039 -11.83692,16.90989 -6.44936,-4.79769 -6.29205,11.87625 -5.85947,-4.52241 z"
           id="path51"
           sodipodi:nodetypes="ccccccccccccc" /><circle
           style="fill:none;fill-opacity:0.413386;fill-rule:evenodd;stroke-width:0.134098;stroke-dashoffset:31.768;paint-order:markers fill stroke"
           id="circle51"
           cx="255.52185"
           cy="99.107346"
           r="20.5"
           transform="rotate(32.341191)" /></g></g><g
       id="g143"
       transform="translate(-12.969643,43.327407)"><path
         id="path92"
         style="fill:#306998;fill-opacity:1;stroke-width:0.700002;stroke-linecap:round;paint-order:markers fill stroke"
         d="m 118.68909,191.97665 a 3.6368998,3.6368998 0 0 0 0.19485,0.0424 3.6368998,3.6368998 0 0 0 0.51755,0.037 3.6368998,3.6368998 0 0 0 0.17843,-0.004 3.6368998,3.6368998 0 0 0 0.17802,-0.0132 3.6368998,3.6368998 0 0 0 0.17721,-0.0218 3.6368998,3.6368998 0 0 0 0.17588,-0.0305 3.6368998,3.6368998 0 0 0 0.0367,-0.008 v -0.39367 a 3.2620483,3.2620483 0 0 1 -0.23594,0.0567 3.2620483,3.2620483 0 0 1 -0.51031,0.0402 3.2620483,3.2620483 0 0 1 -0.51031,-0.0402 3.2620483,3.2620483 0 0 1 -0.20209,-0.0485 z" /><path
         id="path93"
         style="fill:#306998;fill-opacity:1;stroke-width:0.700002;stroke-linecap:round;paint-order:markers fill stroke"
         d="m 121.83926,190.57459 a 3.2620483,3.2620483 0 0 1 -0.25714,0.26296 3.2620483,3.2620483 0 0 1 -0.31108,0.24878 3.2620483,3.2620483 0 0 1 -0.33902,0.20902 3.2620483,3.2620483 0 0 1 -0.36206,0.1661 3.2620483,3.2620483 0 0 1 -0.17385,0.0553 v 0.39438 a 3.6368998,3.6368998 0 0 0 0.2494,-0.0748 3.6368998,3.6368998 0 0 0 0.38837,-0.16762 3.6368998,3.6368998 0 0 0 0.36624,-0.21167 3.6368998,3.6368998 0 0 0 0.33922,-0.25276 3.6368998,3.6368998 0 0 0 0.0999,-0.0943 z" /><path
         id="path94"
         style="fill:#306998;fill-opacity:1;stroke-width:0.700002;stroke-linecap:round;paint-order:markers fill stroke"
         d="m 116.60329,190.73457 0.20545,-0.34381 a 3.2620483,3.2620483 0 0 1 -0.19403,-0.29538 l -0.17629,0.41885 a 3.6368998,3.6368998 0 0 0 0.16487,0.22034 z" /><path
         id="path95"
         style="fill:#306998;fill-opacity:1;stroke-width:0.700002;stroke-linecap:round;paint-order:markers fill stroke"
         d="m 117.08536,191.20787 0.26652,-0.26816 a 3.2620483,3.2620483 0 0 1 -0.1873,-0.15508 l -0.23237,0.29375 a 3.6368998,3.6368998 0 0 0 0.15315,0.12949 z" /><path
         id="path96"
         style="fill:#306998;fill-opacity:1;stroke:#306998;stroke-width:0.3;stroke-linecap:round;stroke-dasharray:none;stroke-opacity:1;paint-order:markers fill stroke"
         d="m 122.98744,187.81871 -0.33362,0.47666 a 3.2620483,3.2620483 0 0 1 0.01,0.12378 3.2620483,3.2620483 0 0 1 -3.26212,3.26202 3.2620483,3.2620483 0 0 1 -2.04961,-0.74146 l -0.26652,0.26816 a 3.6368998,3.6368998 0 0 0 2.31613,0.84821 3.6368998,3.6368998 0 0 0 3.63693,-3.63693 3.6368998,3.6368998 0 0 0 -0.051,-0.60044 z" /><path
         id="path97"
         style="fill:#360000;fill-opacity:1;stroke-width:0.700002;stroke-linecap:round;paint-order:markers fill stroke"
         d="m 122.86254,187.30493 -0.2807,0.43078 a 3.2620483,3.2620483 0 0 1 0.072,0.55966 l 0.33362,-0.47666 a 3.6368998,3.6368998 0 0 0 -0.1249,-0.51378 z" /><path
         id="path98"
         style="fill:#4b8bbe;fill-opacity:1;stroke:#4b8bbe;stroke-width:0.3;stroke-linecap:round;stroke-dasharray:none;stroke-opacity:1;paint-order:markers fill stroke"
         d="m 120.39611,184.92192 a 3.6368998,3.6368998 0 0 0 -0.99462,-0.13968 3.6368998,3.6368998 0 0 0 -3.63682,3.63692 3.6368998,3.6368998 0 0 0 0.67375,2.09508 l 0.17629,-0.41885 a 3.2620483,3.2620483 0 0 1 -0.47524,-1.67623 3.2620483,3.2620483 0 0 1 3.26202,-3.26202 3.2620483,3.2620483 0 0 1 0.99462,0.16477 z" /><path
         id="path99"
         style="fill:#4b8bbe;fill-opacity:1;stroke-width:0.700002;stroke-linecap:round;paint-order:markers fill stroke"
         d="m 120.39611,184.92192 v 0.39999 a 3.2620483,3.2620483 0 0 1 1.44315,0.94864 v -0.54008 a 3.6368998,3.6368998 0 0 0 -1.44315,-0.80855 z" /><path
         id="path100"
         style="fill:#306998;fill-opacity:1;stroke-width:0.700002;stroke-linecap:round;paint-order:markers fill stroke"
         d="m 117.32558,190.96612 a 3.2620483,3.2620483 0 0 0 0.15855,0.12501 3.2620483,3.2620483 0 0 0 0.43649,0.26744 3.2620483,3.2620483 0 0 0 0.47289,0.19586 3.2620483,3.2620483 0 0 0 7.9e-4,2e-4 v -0.61513 l -0.58974,-0.45515 z" /><path
         id="path101"
         style="fill:#306998;fill-opacity:1;stroke-width:0.700002;stroke-linecap:round;paint-order:markers fill stroke"
         d="m 118.39423,190.49568 -0.60524,-0.50012 -0.64194,0.8113 a 3.2620483,3.2620483 0 0 0 0.17853,0.15926 l 0.47891,-0.48176 0.58974,0.45515 z" /><path
         id="path102"
         style="fill:#4b8bbe;fill-opacity:1;stroke-width:0.700002;stroke-linecap:round;paint-order:markers fill stroke"
         d="m 118.39423,189.2484 v -1.86578 h -1.39666 v 1.80276 l 0.40346,-0.95893 z" /><path
         id="path103"
         style="fill:#306998;fill-opacity:1;stroke-width:0.700002;stroke-linecap:round;paint-order:markers fill stroke"
         d="m 118.39423,189.2484 -0.9932,-1.02195 -0.40346,0.95893 v 0.8893 l 0.58974,-0.98697 0.80692,0.60523 z" /><path
         id="path104"
         style="fill:#306998;fill-opacity:1;stroke-width:0.700002;stroke-linecap:round;paint-order:markers fill stroke"
         d="m 118.66585,191.14924 v 0.54763 a 3.2620483,3.2620483 0 0 0 0.20208,0.0485 3.2620483,3.2620483 0 0 0 0.51031,0.0402 3.2620483,3.2620483 0 0 0 0.51032,-0.0402 3.2620483,3.2620483 0 0 0 0.23593,-0.0567 v -2.50883 l -1.16388,2.19684 z" /><path
         id="path105"
         style="fill:#306998;fill-opacity:1;stroke-width:0.700002;stroke-linecap:round;paint-order:markers fill stroke"
         d="m 120.12449,188.58525 -0.0465,-0.0328 -1.17163,2.3665 -0.24052,-0.19872 v 0.42905 l 0.29476,0.22748 1.16388,-2.19684 z" /><path
         id="path106"
         style="fill:#4b8bbe;fill-opacity:1;stroke-width:0.700002;stroke-linecap:round;paint-order:markers fill stroke"
         d="m 120.12449,187.08714 -0.40346,-0.31159 -1.05518,2.15616 v 0.72687 l 1.15602,-2.35538 0.30262,0.19698 z" /><path
         id="path107"
         style="fill:#4b8bbe;fill-opacity:1;stroke-width:0.700002;stroke-linecap:round;paint-order:markers fill stroke"
         d="m 118.66585,185.96436 v 2.96735 l 1.05518,-2.15616 0.40346,0.31159 v -1.12278 z" /><path
         id="path108"
         style="fill:#4b8bbe;fill-opacity:1;stroke-width:0.700002;stroke-linecap:round;paint-order:markers fill stroke"
         d="m 121.83926,186.58927 -1.12503,0.0233 -0.20953,0.76817 -0.10859,-0.0839 v 0.38 l 0.73708,0.47973 z" /><path
         id="path109"
         style="fill:#306998;fill-opacity:1;stroke-width:0.700002;stroke-linecap:round;paint-order:markers fill stroke"
         d="m 120.39611,189.17784 v 2.36354 a 3.2620483,3.2620483 0 0 0 0.17385,-0.0553 3.2620483,3.2620483 0 0 0 0.36206,-0.16609 3.2620483,3.2620483 0 0 0 0.33902,-0.20902 3.2620483,3.2620483 0 0 0 0.31108,-0.24879 3.2620483,3.2620483 0 0 0 0.25714,-0.26295 v -1.14022 l -0.36471,0.52101 z" /><path
         id="path110"
         style="fill:#306998;fill-opacity:1;stroke-width:0.700002;stroke-linecap:round;paint-order:markers fill stroke"
         d="m 121.83926,188.87553 -0.41121,0.63123 -1.03194,-0.72942 v 0.4005 l 1.07844,0.80222 0.36471,-0.52101 z" /><path
         id="path111"
         style="fill:#4b8bbe;fill-opacity:1;stroke-width:0.700002;stroke-linecap:round;paint-order:markers fill stroke"
         d="m 120.39611,184.59666 v 2.70022 l 0.10859,0.0839 0.20953,-0.76817 1.12503,-0.0233 v -1.99261 z" /><path
         style="fill:#4b8bbe;fill-opacity:1;stroke-width:0.700002;stroke-linecap:round;paint-order:markers fill stroke"
         d="m 115.73285,192.19138 1.66821,-3.96489 1.07075,1.10179 1.24922,-2.55274 0.78367,0.60521 0.20949,-0.76816 1.12507,-0.0233 -0.70608,1.56733 -1.31128,-0.8535 -1.24146,2.52947 -0.99316,-0.74487 z"
         id="path112"
         sodipodi:nodetypes="cccccccccccc" /><path
         style="fill:#306998;fill-opacity:1;stroke-width:0.700002;stroke-linecap:round;paint-order:markers fill stroke"
         d="m 115.83239,192.46844 1.95662,-2.47288 1.11731,0.92333 1.17163,-2.36652 1.35008,0.95437 1.88546,-2.89415 -1.20266,-0.88453 1.69924,0.91557 -2.33548,3.33641 -1.2725,-0.94661 -1.24145,2.34325 -1.15611,-0.8923 z"
         id="path113"
         sodipodi:nodetypes="ccccccccccccc" /><circle
         style="fill:none;fill-opacity:0.413386;fill-rule:evenodd;stroke-width:0.0999997;stroke-dashoffset:31.768;paint-order:markers fill stroke"
         id="circle113"
         cx="201.66049"
         cy="95.31601"
         r="4.0447588"
         transform="rotate(32.341191)" /></g><rect
       style="fill:#333333;fill-rule:evenodd;stroke:#ffffff;stroke-width:0.0999997;stroke-linejoin:round;paint-order:markers fill stroke"
       id="rect137"
       width="37.140362"
       height="35.793308"
       x="54.91267"
       y="132.79968"
       rx="2.8633869"
       ry="2.8633869" /><g
       id="g139"
       transform="translate(-51.850987,-17.438844)"><g
         id="g1"
         transform="matrix(0.66440714,0,0,0.66406877,18.207551,23.974688)"
         style="stroke-width:1.50548"><path
           id="path16"
           style="fill:#306998;fill-opacity:1;stroke-width:1.05384;stroke-linecap:round;paint-order:markers fill stroke"
           d="m 159.32311,238.50115 a 18.432854,18.432854 0 0 0 0.98754,0.21497 18.432854,18.432854 0 0 0 2.62309,0.18759 18.432854,18.432854 0 0 0 0.90434,-0.0222 18.432854,18.432854 0 0 0 0.90227,-0.0667 18.432854,18.432854 0 0 0 0.89814,-0.11058 18.432854,18.432854 0 0 0 0.89142,-0.15452 18.432854,18.432854 0 0 0 0.18603,-0.0419 v -1.99523 a 16.532999,16.532999 0 0 1 -1.19579,0.28732 16.532999,16.532999 0 0 1 -2.58641,0.2036 16.532999,16.532999 0 0 1 -2.5864,-0.2036 16.532999,16.532999 0 0 1 -1.02423,-0.24598 z" /><path
           id="path24"
           style="fill:#306998;fill-opacity:1;stroke-width:1.05384;stroke-linecap:round;paint-order:markers fill stroke"
           d="m 175.28906,231.39512 a 16.532999,16.532999 0 0 1 -1.30328,1.33274 16.532999,16.532999 0 0 1 -1.57665,1.2609 16.532999,16.532999 0 0 1 -1.71824,1.05937 16.532999,16.532999 0 0 1 -1.83503,0.84181 16.532999,16.532999 0 0 1 -0.88108,0.28008 v 1.99885 a 18.432854,18.432854 0 0 0 1.264,-0.37931 18.432854,18.432854 0 0 0 1.96836,-0.84956 18.432854,18.432854 0 0 0 1.85622,-1.0728 18.432854,18.432854 0 0 0 1.71927,-1.28106 18.432854,18.432854 0 0 0 0.50643,-0.47801 z" /><path
           id="path5"
           style="fill:#306998;fill-opacity:1;stroke-width:1.05384;stroke-linecap:round;paint-order:markers fill stroke"
           d="m 148.75166,232.20592 1.04128,-1.74252 a 16.532999,16.532999 0 0 1 -0.9834,-1.49707 l -0.89349,2.12287 a 18.432854,18.432854 0 0 0 0.83561,1.11672 z" /><path
           id="path39"
           style="fill:#306998;fill-opacity:1;stroke-width:1.05384;stroke-linecap:round;paint-order:markers fill stroke"
           d="m 151.19492,234.60474 1.35083,-1.35909 a 16.532999,16.532999 0 0 1 -0.9493,-0.78599 l -1.17771,1.48879 a 18.432854,18.432854 0 0 0 0.77618,0.65629 z" /><path
           id="path38"
           style="fill:#306998;fill-opacity:1;stroke-width:1.05384;stroke-linecap:round;paint-order:markers fill stroke"
           d="m 181.10834,217.4275 -1.69085,2.41587 a 16.532999,16.532999 0 0 1 0.0496,0.62735 16.532999,16.532999 0 0 1 -16.53336,16.53284 16.532999,16.532999 0 0 1 -10.38799,-3.75791 l -1.35083,1.35909 a 18.432854,18.432854 0 0 0 11.73882,4.29897 18.432854,18.432854 0 0 0 18.43299,-18.43299 18.432854,18.432854 0 0 0 -0.25838,-3.04322 z" /><path
           id="path37"
           style="fill:#360000;fill-opacity:1;stroke-width:1.05384;stroke-linecap:round;paint-order:markers fill stroke"
           d="m 180.47531,214.82352 -1.42265,2.18333 a 16.532999,16.532999 0 0 1 0.36483,2.83652 l 1.69085,-2.41587 a 18.432854,18.432854 0 0 0 -0.63303,-2.60398 z" /><path
           id="path41"
           style="fill:#4b8bbe;fill-opacity:1;stroke-width:1.05384;stroke-linecap:round;paint-order:markers fill stroke"
           d="m 167.97478,202.74576 a 18.432854,18.432854 0 0 0 -5.04104,-0.70797 18.432854,18.432854 0 0 0 -18.43246,18.43299 18.432854,18.432854 0 0 0 3.41477,10.61847 l 0.89349,-2.12287 a 16.532999,16.532999 0 0 1 -2.40864,-8.4956 16.532999,16.532999 0 0 1 16.53284,-16.53285 16.532999,16.532999 0 0 1 5.04104,0.8351 z" /><path
           id="path40"
           style="fill:#4b8bbe;fill-opacity:1;stroke-width:1.05384;stroke-linecap:round;paint-order:markers fill stroke"
           d="m 167.97478,202.74576 v 2.02727 a 16.532999,16.532999 0 0 1 7.31428,4.80797 v -2.7373 a 18.432854,18.432854 0 0 0 -7.31428,-4.09794 z" /><path
           id="rect5"
           style="fill:#306998;fill-opacity:1;stroke-width:1.05384;stroke-linecap:round;paint-order:markers fill stroke"
           d="m 152.41242,233.3795 a 16.532999,16.532999 0 0 0 0.80357,0.63355 16.532999,16.532999 0 0 0 2.21227,1.35547 16.532999,16.532999 0 0 0 2.39675,0.99271 16.532999,16.532999 0 0 0 0.004,0.001 v -3.11764 l -2.98896,-2.30684 z" /><path
           id="path28"
           style="fill:#306998;fill-opacity:1;stroke-width:1.05384;stroke-linecap:round;paint-order:markers fill stroke"
           d="m 157.82863,230.99515 -3.06751,-2.53473 -3.25355,4.11189 a 16.532999,16.532999 0 0 0 0.90485,0.80719 l 2.42724,-2.44172 2.98897,2.30684 z" /><path
           id="path27"
           style="fill:#4b8bbe;fill-opacity:1;stroke-width:1.05384;stroke-linecap:round;paint-order:markers fill stroke"
           d="m 157.82863,224.67357 v -9.45627 h -7.07864 v 9.13691 l 2.04484,-4.86017 z" /><path
           id="path26"
           style="fill:#306998;fill-opacity:1;stroke-width:1.05384;stroke-linecap:round;paint-order:markers fill stroke"
           d="m 157.82863,224.67357 -5.0338,-5.17953 -2.04484,4.86017 v 4.50722 l 2.98896,-5.00228 4.08968,3.06751 z" /><path
           id="rect6"
           style="fill:#306998;fill-opacity:1;stroke-width:1.05384;stroke-linecap:round;paint-order:markers fill stroke"
           d="m 159.20529,234.3076 v 2.77555 a 16.532999,16.532999 0 0 0 1.02423,0.24598 16.532999,16.532999 0 0 0 2.5864,0.2036 16.532999,16.532999 0 0 0 2.58641,-0.2036 16.532999,16.532999 0 0 0 1.19579,-0.28733 v -12.7155 l -5.89887,11.13421 z" /><path
           id="path31"
           style="fill:#306998;fill-opacity:1;stroke-width:1.05384;stroke-linecap:round;paint-order:markers fill stroke"
           d="m 166.59812,221.31253 -0.23565,-0.1664 -5.93813,11.9941 -1.21905,-1.00717 v 2.17454 l 1.49396,1.15291 5.89887,-11.13421 z" /><path
           id="path30"
           style="fill:#4b8bbe;fill-opacity:1;stroke-width:1.05384;stroke-linecap:round;paint-order:markers fill stroke"
           d="m 166.59812,213.71971 -2.04484,-1.57923 -5.34799,10.92802 v 3.68401 l 5.85907,-11.93777 1.53376,0.99839 z" /><path
           id="path29"
           style="fill:#4b8bbe;fill-opacity:1;stroke-width:1.05384;stroke-linecap:round;paint-order:markers fill stroke"
           d="m 159.20529,208.02911 v 15.03939 l 5.34799,-10.92802 2.04484,1.57923 v -5.6906 z" /><path
           id="path23"
           style="fill:#4b8bbe;fill-opacity:1;stroke-width:1.05384;stroke-linecap:round;paint-order:markers fill stroke"
           d="m 175.28906,211.19635 -5.70198,0.11834 -1.06195,3.89331 -0.55035,-0.4253 v 1.92598 l 3.73569,2.43138 z" /><path
           id="path33"
           style="fill:#306998;fill-opacity:1;stroke-width:1.05384;stroke-linecap:round;paint-order:markers fill stroke"
           d="m 167.97478,224.31597 v 11.97911 a 16.532999,16.532999 0 0 0 0.88108,-0.28009 16.532999,16.532999 0 0 0 1.83503,-0.8418 16.532999,16.532999 0 0 0 1.71824,-1.05937 16.532999,16.532999 0 0 0 1.57665,-1.26091 16.532999,16.532999 0 0 0 1.30328,-1.33273 v -5.77898 l -1.84846,2.64067 z" /><path
           id="path34"
           style="fill:#306998;fill-opacity:1;stroke-width:1.05384;stroke-linecap:round;paint-order:markers fill stroke"
           d="m 175.28906,222.78376 -2.08411,3.19929 -5.23017,-3.69693 v 2.02985 l 5.46582,4.0659 1.84846,-2.64067 z" /><path
           id="path32"
           style="fill:#4b8bbe;fill-opacity:1;stroke-width:1.05384;stroke-linecap:round;paint-order:markers fill stroke"
           d="m 167.97478,201.09723 v 13.68547 l 0.55035,0.4253 1.06195,-3.89331 5.70198,-0.11834 v -10.09912 z" /><path
           style="fill:#4b8bbe;fill-opacity:1;stroke-width:1.05384;stroke-linecap:round;paint-order:markers fill stroke"
           d="m 144.34004,239.58948 8.45494,-20.09524 5.42689,5.58419 6.33138,-12.93803 3.97186,3.06738 1.06178,-3.89321 5.70218,-0.11798 -3.57861,7.94372 -6.64598,-4.32579 -6.29205,12.82006 -5.03364,-3.77523 z"
           id="path8"
           sodipodi:nodetypes="cccccccccccc" /><path
           style="fill:#306998;fill-opacity:1;stroke-width:1.05384;stroke-linecap:round;paint-order:markers fill stroke"
           d="m 144.84452,240.99367 9.91673,-12.53326 5.66284,4.67971 5.93813,-11.99422 6.8426,4.83701 9.55606,-14.66834 -6.09543,-4.48309 8.61225,4.64039 -11.83692,16.90989 -6.44936,-4.79769 -6.29205,11.87625 -5.85947,-4.52241 z"
           id="path7"
           sodipodi:nodetypes="ccccccccccccc" /><circle
           style="fill:none;fill-opacity:0.413386;fill-rule:evenodd;stroke-width:0.150548;stroke-dashoffset:31.768;paint-order:markers fill stroke"
           id="circle10"
           cx="255.52185"
           cy="99.107346"
           r="20.5"
           transform="rotate(32.341191)" /></g><path
         style="font-weight:bold;font-size:9.17222px;line-height:1.1;font-family:'Century Gothic';-inkscape-font-specification:'Century Gothic, Bold';text-align:center;text-anchor:middle;fill:#cccccc;fill-rule:evenodd;stroke:#cccccc;stroke-width:0.150548;stroke-dashoffset:31.768;paint-order:markers fill stroke"
         d="m 139.17069,229.57726 -0.49163,-1.11457 4.45831,-1.96651 0.49162,1.11458 -0.47123,0.20785 q 0.45602,0.19045 0.74174,0.46091 0.27982,0.26817 0.44972,0.65336 0.38138,0.86461 -0.008,1.79028 -0.39368,0.92746 -1.38942,1.36668 -1.03262,0.45547 -1.96166,0.13591 -0.92904,-0.31955 -1.31403,-1.19236 -0.17713,-0.40158 -0.18096,-0.82086 -0.004,-0.41928 0.16746,-0.85216 z m 1.43662,0.77118 q 0.22955,0.5204 0.75017,0.70194 0.51652,0.18335 1.0902,-0.0697 0.57778,-0.25485 0.79703,-0.76763 0.21745,-0.51688 -0.008,-1.0291 -0.23316,-0.5286 -0.75149,-0.71604 -0.52242,-0.18564 -1.11659,0.0765 -0.58188,0.25665 -0.78884,0.76401 -0.20696,0.50736 0.028,1.04007 z m -2.8597,-4.76981 -0.0704,-1.22512 0.5589,-0.0321 q -0.36227,-0.2932 -0.55402,-0.6635 -0.192,-0.37476 -0.21795,-0.82636 -0.0262,-0.45606 0.17628,-0.83555 0.2025,-0.37949 0.61889,-0.62772 -0.44594,-0.26596 -0.69366,-0.67341 -0.24797,-0.41193 -0.27674,-0.91271 -0.0298,-0.51866 0.18903,-0.92601 0.21883,-0.40734 0.59807,-0.5996 0.37898,-0.19673 1.25534,-0.24709 l 2.85266,-0.16393 0.0707,1.22959 -2.46812,0.14183 q -0.82718,0.0475 -1.106,0.26991 -0.28328,0.22264 -0.25964,0.63399 0.018,0.31299 0.21122,0.5531 0.19299,0.23565 0.51738,0.33813 0.31993,0.10273 1.01744,0.0627 l 2.19538,-0.12616 0.0707,1.2296 -2.35635,0.1354 q -0.6528,0.0375 -0.93778,0.15259 -0.2897,0.11085 -0.42173,0.31134 -0.13204,0.20048 -0.11636,0.47323 0.0175,0.30404 0.21518,0.5439 0.19298,0.23564 0.52658,0.34208 0.33334,0.10196 1.03532,0.0616 l 2.16408,-0.12436 0.0704,1.22513 z m 0.52961,-11.52201 0.51333,0.15914 q -0.21842,-0.41469 -0.26265,-0.83165 -0.0442,-0.41696 0.0857,-0.83618 0.28247,-0.91117 1.16879,-1.33504 0.88632,-0.42388 1.96432,-0.0897 1.0395,0.32225 1.53683,1.19852 0.49305,0.87494 0.21323,1.77755 -0.12466,0.40211 -0.37325,0.70485 -0.25286,0.30141 -0.68406,0.54285 l 2.1945,0.68031 -0.35939,1.15928 -6.35678,-1.97066 z m 1.33883,-0.93067 q -0.17108,0.55184 0.0926,1.03215 0.26372,0.48031 0.87116,0.66863 0.62028,0.19229 1.118,-0.052 0.49345,-0.24558 0.66452,-0.79741 0.16577,-0.53473 -0.11078,-1.01902 -0.27523,-0.48857 -0.8784,-0.67555 -0.59889,-0.18567 -1.09101,0.0556 -0.49639,0.23998 -0.66614,0.78753 z m 0.59942,-4.68269 0.70186,-0.96815 2.82019,0.83306 -1.62414,-2.4829 0.42848,-0.59104 2.82636,0.77114 -1.64345,-2.40286 0.70712,-0.9754 2.90152,4.29955 -0.45476,0.6273 -2.85799,-0.78855 1.61988,2.49641 -0.44951,0.62005 z m 7.78399,-8.73136 q 0.5608,-0.40149 1.25316,-0.47305 0.696,-0.0742 1.3169,0.20838 0.6209,0.28255 1.01978,0.83971 0.4015,0.5608 0.47045,1.24951 0.0726,0.68612 -0.20995,1.30701 -0.28516,0.61726 -0.86416,1.03179 -0.85213,0.61007 -1.88941,0.43835 -1.03625,-0.17797 -1.65674,-1.04467 -0.66482,-0.9286 -0.42705,-2.03519 0.21136,-0.96652 0.98702,-1.52184 z m 0.68459,0.92546 q -0.46248,0.3311 -0.53998,0.87681 -0.0765,0.53945 0.28332,1.04199 0.37021,0.5171 0.90188,0.62117 0.53532,0.10146 1.00144,-0.23225 0.46612,-0.33371 0.54362,-0.87942 0.0775,-0.5457 -0.28749,-1.05552 -0.365,-0.50982 -0.89771,-0.60764 -0.53168,-0.10407 -1.00508,0.23486 z m 3.10589,-3.06552 0.96257,-0.41442 0.24263,0.56356 q 0.0129,-0.4005 0.19764,-0.68485 0.18477,-0.28434 0.49329,-0.41717 0.21802,-0.0939 0.50619,-0.0814 l 0.0665,1.11722 q -0.23995,-0.0137 -0.36747,0.0412 -0.25916,0.11158 -0.30202,0.51036 -0.0387,0.39701 0.36506,1.33491 l 0.098,0.21625 0.77925,1.80997 -1.11477,0.47995 z m 3.53232,-3.41201 1.19701,-0.24914 0.79303,3.81027 1.35289,-2.33557 1.49955,-0.3121 -1.57565,2.71588 2.81846,2.00262 -1.4864,0.30936 -2.48291,-1.7751 0.4572,2.19671 -1.19702,0.24914 z m 9.69523,1.61869 -0.77411,0.73926 q -0.45066,-0.46732 -0.82677,-0.47599 -0.20596,-0.005 -0.32444,0.0821 -0.11837,0.0824 -0.12136,0.21223 -0.002,0.0985 0.0674,0.18523 0.0743,0.0824 0.362,0.23233 l 0.44258,0.23418 q 0.6994,0.36553 0.95521,0.73429 0.25582,0.36875 0.24458,0.8568 -0.0149,0.64922 -0.50404,1.0725 -0.48461,0.42338 -1.28607,0.40492 -1.06563,-0.0245 -1.68225,-0.87198 l 0.77108,-0.80205 q 0.20914,0.25569 0.49209,0.419 0.28753,0.15893 0.5114,0.16409 0.24178,0.006 0.39222,-0.10745 0.15043,-0.11301 0.15394,-0.26524 0.006,-0.28208 -0.52013,-0.56299 l -0.40718,-0.21545 q -1.16833,-0.62272 -1.14771,-1.51821 0.0133,-0.57759 0.46595,-0.97483 0.45723,-0.40161 1.15124,-0.38563 0.47461,0.0109 0.88616,0.23096 0.41614,0.21566 0.6982,0.6119 z"
         id="text10"
         transform="matrix(0.66440714,0,0,0.66406877,18.207551,23.974688)"
         aria-label="ampworks" /></g><rect
       style="fill:#333333;fill-rule:evenodd;stroke:#ffffff;stroke-width:0.1;stroke-linejoin:round;paint-order:markers fill stroke"
       id="rect67"
       width="100.17469"
       height="27.042465"
       x="54.912655"
       y="172.73228"
       rx="2.8633869"
       ry="2.8633869" /><g
       id="g141"
       transform="translate(-51.850987,44.699916)"><g
         id="g88"
         transform="matrix(0.50724115,0,0,0.50724115,36.479505,29.726928)"
         inkscape:export-filename="..\src\ampworks\dqdv\gui_files\assets\logo.png"
         inkscape:export-xdpi="100"
         inkscape:export-ydpi="100"
         style="stroke-width:1.97145"><path
           id="path67"
           style="fill:#306998;fill-opacity:1;stroke-width:1.38001;stroke-linecap:round;paint-order:markers fill stroke"
           d="m 159.32311,238.50115 a 18.432854,18.432854 0 0 0 0.98754,0.21497 18.432854,18.432854 0 0 0 2.62309,0.18759 18.432854,18.432854 0 0 0 0.90434,-0.0222 18.432854,18.432854 0 0 0 0.90227,-0.0667 18.432854,18.432854 0 0 0 0.89814,-0.11058 18.432854,18.432854 0 0 0 0.89142,-0.15452 18.432854,18.432854 0 0 0 0.18603,-0.0419 v -1.99523 a 16.532999,16.532999 0 0 1 -1.19579,0.28732 16.532999,16.532999 0 0 1 -2.58641,0.2036 16.532999,16.532999 0 0 1 -2.5864,-0.2036 16.532999,16.532999 0 0 1 -1.02423,-0.24598 z" /><path
           id="path68"
           style="fill:#306998;fill-opacity:1;stroke-width:1.38001;stroke-linecap:round;paint-order:markers fill stroke"
           d="m 175.28906,231.39512 a 16.532999,16.532999 0 0 1 -1.30328,1.33274 16.532999,16.532999 0 0 1 -1.57665,1.2609 16.532999,16.532999 0 0 1 -1.71824,1.05937 16.532999,16.532999 0 0 1 -1.83503,0.84181 16.532999,16.532999 0 0 1 -0.88108,0.28008 v 1.99885 a 18.432854,18.432854 0 0 0 1.264,-0.37931 18.432854,18.432854 0 0 0 1.96836,-0.84956 18.432854,18.432854 0 0 0 1.85622,-1.0728 18.432854,18.432854 0 0 0 1.71927,-1.28106 18.432854,18.432854 0 0 0 0.50643,-0.47801 z" /><path
           id="path69"
           style="fill:#306998;fill-opacity:1;stroke-width:1.38001;stroke-linecap:round;paint-order:markers fill stroke"
           d="m 148.75166,232.20592 1.04128,-1.74252 a 16.532999,16.532999 0 0 1 -0.9834,-1.49707 l -0.89349,2.12287 a 18.432854,18.432854 0 0 0 0.83561,1.11672 z" /><path
           id="path70"
           style="fill:#306998;fill-opacity:1;stroke-width:1.38001;stroke-linecap:round;paint-order:markers fill stroke"
           d="m 151.19492,234.60474 1.35083,-1.35909 a 16.532999,16.532999 0 0 1 -0.9493,-0.78599 l -1.17771,1.48879 a 18.432854,18.432854 0 0 0 0.77618,0.65629 z" /><path
           id="path71"
           style="fill:#306998;fill-opacity:1;stroke-width:1.38001;stroke-linecap:round;paint-order:markers fill stroke"
           d="m 181.10834,217.4275 -1.69085,2.41587 a 16.532999,16.532999 0 0 1 0.0496,0.62735 16.532999,16.532999 0 0 1 -16.53336,16.53284 16.532999,16.532999 0 0 1 -10.38799,-3.75791 l -1.35083,1.35909 a 18.432854,18.432854 0 0 0 11.73882,4.29897 18.432854,18.432854 0 0 0 18.43299,-18.43299 18.432854,18.432854 0 0 0 -0.25838,-3.04322 z" /><path
           id="path72"
           style="fill:#360000;fill-opacity:1;stroke-width:1.38001;stroke-linecap:round;paint-order:markers fill stroke"
           d="m 180.47531,214.82352 -1.42265,2.18333 a 16.532999,16.532999 0 0 1 0.36483,2.83652 l 1.69085,-2.41587 a 18.432854,18.432854 0 0 0 -0.63303,-2.60398 z" /><path
           id="path73"
           style="fill:#4b8bbe;fill-opacity:1;stroke-width:1.38001;stroke-linecap:round;paint-order:markers fill stroke"
           d="m 167.97478,202.74576 a 18.432854,18.432854 0 0 0 -5.04104,-0.70797 18.432854,18.432854 0 0 0 -18.43246,18.43299 18.432854,18.432854 0 0 0 3.41477,10.61847 l 0.89349,-2.12287 a 16.532999,16.532999 0 0 1 -2.40864,-8.4956 16.532999,16.532999 0 0 1 16.53284,-16.53285 16.532999,16.532999 0 0 1 5.04104,0.8351 z" /><path
           id="path74"
           style="fill:#4b8bbe;fill-opacity:1;stroke-width:1.38001;stroke-linecap:round;paint-order:markers fill stroke"
           d="m 167.97478,202.74576 v 2.02727 a 16.532999,16.532999 0 0 1 7.31428,4.80797 v -2.7373 a 18.432854,18.432854 0 0 0 -7.31428,-4.09794 z" /><path
           id="path75"
           style="fill:#306998;fill-opacity:1;stroke-width:1.38001;stroke-linecap:round;paint-order:markers fill stroke"
           d="m 152.41242,233.3795 a 16.532999,16.532999 0 0 0 0.80357,0.63355 16.532999,16.532999 0 0 0 2.21227,1.35547 16.532999,16.532999 0 0 0 2.39675,0.99271 16.532999,16.532999 0 0 0 0.004,0.001 v -3.11764 l -2.98896,-2.30684 z" /><path
           id="path76"
           style="fill:#306998;fill-opacity:1;stroke-width:1.38001;stroke-linecap:round;paint-order:markers fill stroke"
           d="m 157.82863,230.99515 -3.06751,-2.53473 -3.25355,4.11189 a 16.532999,16.532999 0 0 0 0.90485,0.80719 l 2.42724,-2.44172 2.98897,2.30684 z" /><path
           id="path77"
           style="fill:#4b8bbe;fill-opacity:1;stroke-width:1.38001;stroke-linecap:round;paint-order:markers fill stroke"
           d="m 157.82863,224.67357 v -9.45627 h -7.07864 v 9.13691 l 2.04484,-4.86017 z" /><path
           id="path78"
           style="fill:#306998;fill-opacity:1;stroke-width:1.38001;stroke-linecap:round;paint-order:markers fill stroke"
           d="m 157.82863,224.67357 -5.0338,-5.17953 -2.04484,4.86017 v 4.50722 l 2.98896,-5.00228 4.08968,3.06751 z" /><path
           id="path79"
           style="fill:#306998;fill-opacity:1;stroke-width:1.38001;stroke-linecap:round;paint-order:markers fill stroke"
           d="m 159.20529,234.3076 v 2.77555 a 16.532999,16.532999 0 0 0 1.02423,0.24598 16.532999,16.532999 0 0 0 2.5864,0.2036 16.532999,16.532999 0 0 0 2.58641,-0.2036 16.532999,16.532999 0 0 0 1.19579,-0.28733 v -12.7155 l -5.89887,11.13421 z" /><path
           id="path80"
           style="fill:#306998;fill-opacity:1;stroke-width:1.38001;stroke-linecap:round;paint-order:markers fill stroke"
           d="m 166.59812,221.31253 -0.23565,-0.1664 -5.93813,11.9941 -1.21905,-1.00717 v 2.17454 l 1.49396,1.15291 5.89887,-11.13421 z" /><path
           id="path81"
           style="fill:#4b8bbe;fill-opacity:1;stroke-width:1.38001;stroke-linecap:round;paint-order:markers fill stroke"
           d="m 166.59812,213.71971 -2.04484,-1.57923 -5.34799,10.92802 v 3.68401 l 5.85907,-11.93777 1.53376,0.99839 z" /><path
           id="path82"
           style="fill:#4b8bbe;fill-opacity:1;stroke-width:1.38001;stroke-linecap:round;paint-order:markers fill stroke"
           d="m 159.20529,208.02911 v 15.03939 l 5.34799,-10.92802 2.04484,1.57923 v -5.6906 z" /><path
           id="path83"
           style="fill:#4b8bbe;fill-opacity:1;stroke-width:1.38001;stroke-linecap:round;paint-order:markers fill stroke"
           d="m 175.28906,211.19635 -5.70198,0.11834 -1.06195,3.89331 -0.55035,-0.4253 v 1.92598 l 3.73569,2.43138 z" /><path
           id="path84"
           style="fill:#306998;fill-opacity:1;stroke-width:1.38001;stroke-linecap:round;paint-order:markers fill stroke"
           d="m 167.97478,224.31597 v 11.97911 a 16.532999,16.532999 0 0 0 0.88108,-0.28009 16.532999,16.532999 0 0 0 1.83503,-0.8418 16.532999,16.532999 0 0 0 1.71824,-1.05937 16.532999,16.532999 0 0 0 1.57665,-1.26091 16.532999,16.532999 0 0 0 1.30328,-1.33273 v -5.77898 l -1.84846,2.64067 z" /><path
           id="path85"
           style="fill:#306998;fill-opacity:1;stroke-width:1.38001;stroke-linecap:round;paint-order:markers fill stroke"
           d="m 175.28906,222.78376 -2.08411,3.19929 -5.23017,-3.69693 v 2.02985 l 5.46582,4.0659 1.84846,-2.64067 z" /><path
           id="path86"
           style="fill:#4b8bbe;fill-opacity:1;stroke-width:1.38001;stroke-linecap:round;paint-order:markers fill stroke"
           d="m 167.97478,201.09723 v 13.68547 l 0.55035,0.4253 1.06195,-3.89331 5.70198,-0.11834 v -10.09912 z" /><path
           style="fill:#4b8bbe;fill-opacity:1;stroke-width:1.38001;stroke-linecap:round;paint-order:markers fill stroke"
           d="m 144.34004,239.58948 8.45494,-20.09524 5.42689,5.58419 6.33138,-12.93803 3.97186,3.06738 1.06178,-3.89321 5.70218,-0.11798 -3.57861,7.94372 -6.64598,-4.32579 -6.29205,12.82006 -5.03364,-3.77523 z"
           id="path87"
           sodipodi:nodetypes="cccccccccccc" /><path
           style="fill:#306998;fill-opacity:1;stroke-width:1.38001;stroke-linecap:round;paint-order:markers fill stroke"
           d="m 144.84452,240.99367 9.91673,-12.53326 5.66284,4.67971 5.93813,-11.99422 6.8426,4.83701 9.55606,-14.66834 -6.09543,-4.48309 8.61225,4.64039 -11.83692,16.90989 -6.44936,-4.79769 -6.29205,11.87625 -5.85947,-4.52241 z"
           id="path88"
           sodipodi:nodetypes="ccccccccccccc" /><circle
           style="fill:none;fill-opacity:0.413386;fill-rule:evenodd;stroke-width:0.197145;stroke-dashoffset:31.768;paint-order:markers fill stroke"
           id="circle88"
           cx="255.52185"
           cy="99.107346"
           r="20.5"
           transform="rotate(32.341191)" /></g><text
         xml:space="preserve"
         style="font-size:12.3965px;line-height:1.1;font-family:Arial;-inkscape-font-specification:Arial;text-align:center;text-anchor:middle;fill:#cccccc;fill-rule:evenodd;stroke:none;stroke-width:0.1;stroke-linejoin:round;paint-order:markers fill stroke"
         x="168.03241"
         y="145.9874"
         id="text88"><tspan
           sodipodi:role="line"
           id="tspan88"
           style="font-style:normal;font-variant:normal;font-weight:bold;font-stretch:normal;font-size:12.3965px;font-family:Arial;-inkscape-font-specification:'Arial Bold';fill:#cccccc;stroke:none;stroke-width:0.1"
           x="168.03241"
           y="145.9874">AMPWORKS</tspan></text></g><rect
       style="fill:#e6e6e6;fill-rule:evenodd;stroke:#ffffff;stroke-width:0.1;stroke-linejoin:round;paint-order:markers fill stroke"
       id="rect66"
       width="100.17469"
       height="27.042465"
       x="54.912655"
       y="89.926094"
       rx="2.8633869"
       ry="2.8633869" /><g
       id="g142"
       transform="translate(51.850984,-38.106269)"><g
         id="g65"
         transform="matrix(0.50724115,0,0,0.50724115,-67.22247,29.726928)"
         inkscape:export-filename="..\src\ampworks\dqdv\gui_files\assets\logo.png"
         inkscape:export-xdpi="100"
         inkscape:export-ydpi="100"
         style="stroke-width:1.97145"><path
           id="path4"
           style="fill:#306998;fill-opacity:1;stroke-width:1.38001;stroke-linecap:round;paint-order:markers fill stroke"
           d="m 159.32311,238.50115 a 18.432854,18.432854 0 0 0 0.98754,0.21497 18.432854,18.432854 0 0 0 2.62309,0.18759 18.432854,18.432854 0 0 0 0.90434,-0.0222 18.432854,18.432854 0 0 0 0.90227,-0.0667 18.432854,18.432854 0 0 0 0.89814,-0.11058 18.432854,18.432854 0 0 0 0.89142,-0.15452 18.432854,18.432854 0 0 0 0.18603,-0.0419 v -1.99523 a 16.532999,16.532999 0 0 1 -1.19579,0.28732 16.532999,16.532999 0 0 1 -2.58641,0.2036 16.532999,16.532999 0 0 1 -2.5864,-0.2036 16.532999,16.532999 0 0 1 -1.02423,-0.24598 z" /><path
           id="path42"
           style="fill:#306998;fill-opacity:1;stroke-width:1.38001;stroke-linecap:round;paint-order:markers fill stroke"
           d="m 175.28906,231.39512 a 16.532999,16.532999 0 0 1 -1.30328,1.33274 16.532999,16.532999 0 0 1 -1.57665,1.2609 16.532999,16.532999 0 0 1 -1.71824,1.05937 16.532999,16.532999 0 0 1 -1.83503,0.84181 16.532999,16.532999 0 0 1 -0.88108,0.28008 v 1.99885 a 18.432854,18.432854 0 0 0 1.264,-0.37931 18.432854,18.432854 0 0 0 1.96836,-0.84956 18.432854,18.432854 0 0 0 1.85622,-1.0728 18.432854,18.432854 0 0 0 1.71927,-1.28106 18.432854,18.432854 0 0 0 0.50643,-0.47801 z" /><path
           id="path45"
           style="fill:#306998;fill-opacity:1;stroke-width:1.38001;stroke-linecap:round;paint-order:markers fill stroke"
           d="m 148.75166,232.20592 1.04128,-1.74252 a 16.532999,16.532999 0 0 1 -0.9834,-1.49707 l -0.89349,2.12287 a 18.432854,18.432854 0 0 0 0.83561,1.11672 z" /><path
           id="path46"
           style="fill:#306998;fill-opacity:1;stroke-width:1.38001;stroke-linecap:round;paint-order:markers fill stroke"
           d="m 151.19492,234.60474 1.35083,-1.35909 a 16.532999,16.532999 0 0 1 -0.9493,-0.78599 l -1.17771,1.48879 a 18.432854,18.432854 0 0 0 0.77618,0.65629 z" /><path
           id="path47"
           style="fill:#306998;fill-opacity:1;stroke-width:1.38001;stroke-linecap:round;paint-order:markers fill stroke"
           d="m 181.10834,217.4275 -1.69085,2.41587 a 16.532999,16.532999 0 0 1 0.0496,0.62735 16.532999,16.532999 0 0 1 -16.53336,16.53284 16.532999,16.532999 0 0 1 -10.38799,-3.75791 l -1.35083,1.35909 a 18.432854,18.432854 0 0 0 11.73882,4.29897 18.432854,18.432854 0 0 0 18.43299,-18.43299 18.432854,18.432854 0 0 0 -0.25838,-3.04322 z" /><path
           id="path48"
           style="fill:#360000;fill-opacity:1;stroke-width:1.38001;stroke-linecap:round;paint-order:markers fill stroke"
           d="m 180.47531,214.82352 -1.42265,2.18333 a 16.532999,16.532999 0 0 1 0.36483,2.83652 l 1.69085,-2.41587 a 18.432854,18.432854 0 0 0 -0.63303,-2.60398 z" /><path
           id="path49"
           style="fill:#4b8bbe;fill-opacity:1;stroke-width:1.38001;stroke-linecap:round;paint-order:markers fill stroke"
           d="m 167.97478,202.74576 a 18.432854,18.432854 0 0 0 -5.04104,-0.70797 18.432854,18.432854 0 0 0 -18.43246,18.43299 18.432854,18.432854 0 0 0 3.41477,10.61847 l 0.89349,-2.12287 a 16.532999,16.532999 0 0 1 -2.40864,-8.4956 16.532999,16.532999 0 0 1 16.53284,-16.53285 16.532999,16.532999 0 0 1 5.04104,0.8351 z" /><path
           id="path50"
           style="fill:#4b8bbe;fill-opacity:1;stroke-width:1.38001;stroke-linecap:round;paint-order:markers fill stroke"
           d="m 167.97478,202.74576 v 2.02727 a 16.532999,16.532999 0 0 1 7.31428,4.80797 v -2.7373 a 18.432854,18.432854 0 0 0 -7.31428,-4.09794 z" /><path
           id="path52"
           style="fill:#306998;fill-opacity:1;stroke-width:1.38001;stroke-linecap:round;paint-order:markers fill stroke"
           d="m 152.41242,233.3795 a 16.532999,16.532999 0 0 0 0.80357,0.63355 16.532999,16.532999 0 0 0 2.21227,1.35547 16.532999,16.532999 0 0 0 2.39675,0.99271 16.532999,16.532999 0 0 0 0.004,0.001 v -3.11764 l -2.98896,-2.30684 z" /><path
           id="path53"
           style="fill:#306998;fill-opacity:1;stroke-width:1.38001;stroke-linecap:round;paint-order:markers fill stroke"
           d="m 157.82863,230.99515 -3.06751,-2.53473 -3.25355,4.11189 a 16.532999,16.532999 0 0 0 0.90485,0.80719 l 2.42724,-2.44172 2.98897,2.30684 z" /><path
           id="path54"
           style="fill:#4b8bbe;fill-opacity:1;stroke-width:1.38001;stroke-linecap:round;paint-order:markers fill stroke"
           d="m 157.82863,224.67357 v -9.45627 h -7.07864 v 9.13691 l 2.04484,-4.86017 z" /><path
           id="path55"
           style="fill:#306998;fill-opacity:1;stroke-width:1.38001;stroke-linecap:round;paint-order:markers fill stroke"
           d="m 157.82863,224.67357 -5.0338,-5.17953 -2.04484,4.86017 v 4.50722 l 2.98896,-5.00228 4.08968,3.06751 z" /><path
           id="path56"
           style="fill:#306998;fill-opacity:1;stroke-width:1.38001;stroke-linecap:round;paint-order:markers fill stroke"
           d="m 159.20529,234.3076 v 2.77555 a 16.532999,16.532999 0 0 0 1.02423,0.24598 16.532999,16.532999 0 0 0 2.5864,0.2036 16.532999,16.532999 0 0 0 2.58641,-0.2036 16.532999,16.532999 0 0 0 1.19579,-0.28733 v -12.7155 l -5.89887,11.13421 z" /><path
           id="path57"
           style="fill:#306998;fill-opacity:1;stroke-width:1.38001;stroke-linecap:round;paint-order:markers fill stroke"
           d="m 166.59812,221.31253 -0.23565,-0.1664 -5.93813,11.9941 -1.21905,-1.00717 v 2.17454 l 1.49396,1.15291 5.89887,-11.13421 z" /><path
           id="path58"
           style="fill:#4b8bbe;fill-opacity:1;stroke-width:1.38001;stroke-linecap:round;paint-order:markers fill stroke"
           d="m 166.59812,213.71971 -2.04484,-1.57923 -5.34799,10.92802 v 3.68401 l 5.85907,-11.93777 1.53376,0.99839 z" /><path
           id="path59"
           style="fill:#4b8bbe;fill-opacity:1;stroke-width:1.38001;stroke-linecap:round;paint-order:markers fill stroke"
           d="m 159.20529,208.02911 v 15.03939 l 5.34799,-10.92802 2.04484,1.57923 v -5.6906 z" /><path
           id="path60"
           style="fill:#4b8bbe;fill-opacity:1;stroke-width:1.38001;stroke-linecap:round;paint-order:markers fill stroke"
           d="m 175.28906,211.19635 -5.70198,0.11834 -1.06195,3.89331 -0.55035,-0.4253 v 1.92598 l 3.73569,2.43138 z" /><path
           id="path61"
           style="fill:#306998;fill-opacity:1;stroke-width:1.38001;stroke-linecap:round;paint-order:markers fill stroke"
           d="m 167.97478,224.31597 v 11.97911 a 16.532999,16.532999 0 0 0 0.88108,-0.28009 16.532999,16.532999 0 0 0 1.83503,-0.8418 16.532999,16.532999 0 0 0 1.71824,-1.05937 16.532999,16.532999 0 0 0 1.57665,-1.26091 16.532999,16.532999 0 0 0 1.30328,-1.33273 v -5.77898 l -1.84846,2.64067 z" /><path
           id="path62"
           style="fill:#306998;fill-opacity:1;stroke-width:1.38001;stroke-linecap:round;paint-order:markers fill stroke"
           d="m 175.28906,222.78376 -2.08411,3.19929 -5.23017,-3.69693 v 2.02985 l 5.46582,4.0659 1.84846,-2.64067 z" /><path
           id="path63"
           style="fill:#4b8bbe;fill-opacity:1;stroke-width:1.38001;stroke-linecap:round;paint-order:markers fill stroke"
           d="m 167.97478,201.09723 v 13.68547 l 0.55035,0.4253 1.06195,-3.89331 5.70198,-0.11834 v -10.09912 z" /><path
           style="fill:#4b8bbe;fill-opacity:1;stroke-width:1.38001;stroke-linecap:round;paint-order:markers fill stroke"
           d="m 144.34004,239.58948 8.45494,-20.09524 5.42689,5.58419 6.33138,-12.93803 3.97186,3.06738 1.06178,-3.89321 5.70218,-0.11798 -3.57861,7.94372 -6.64598,-4.32579 -6.29205,12.82006 -5.03364,-3.77523 z"
           id="path64"
           sodipodi:nodetypes="cccccccccccc" /><path
           style="fill:#306998;fill-opacity:1;stroke-width:1.38001;stroke-linecap:round;paint-order:markers fill stroke"
           d="m 144.84452,240.99367 9.91673,-12.53326 5.66284,4.67971 5.93813,-11.99422 6.8426,4.83701 9.55606,-14.66834 -6.09543,-4.48309 8.61225,4.64039 -11.83692,16.90989 -6.44936,-4.79769 -6.29205,11.87625 -5.85947,-4.52241 z"
           id="path65"
           sodipodi:nodetypes="ccccccccccccc" /><circle
           style="fill:none;fill-opacity:0.413386;fill-rule:evenodd;stroke-width:0.197145;stroke-dashoffset:31.768;paint-order:markers fill stroke"
           id="circle65"
           cx="255.52185"
           cy="99.107346"
           r="20.5"
           transform="rotate(32.341191)" /></g><text
         xml:space="preserve"
         style="font-size:12.3965px;line-height:1.1;font-family:Arial;-inkscape-font-specification:Arial;text-align:center;text-anchor:middle;fill:#333333;fill-rule:evenodd;stroke:none;stroke-width:0.1;stroke-linejoin:round;paint-order:markers fill stroke"
         x="64.330437"
         y="145.9874"
         id="text65"><tspan
           sodipodi:role="line"
           id="tspan65"
           style="font-style:normal;font-variant:normal;font-weight:bold;font-stretch:normal;font-size:12.3965px;font-family:Arial;-inkscape-font-specification:'Arial Bold';fill:#333333;stroke:none;stroke-width:0.1"
           x="64.330437"
           y="145.9874">AMPWORKS</tspan></text></g><rect
       style="fill:#e6e6e6;fill-rule:evenodd;stroke:#ffffff;stroke-width:0.0999997;stroke-linejoin:round;paint-order:markers fill stroke"
       id="rect136"
       width="37.140362"
       height="35.793308"
       x="54.912655"
       y="49.993492"
       rx="2.8633869"
       ry="2.8633869" /><g
       id="g140"
       transform="translate(-11.183331,-100.24503)"><g
         id="g135"
         transform="matrix(0.66440714,0,0,0.66406877,-22.460113,23.974688)"
         style="stroke-width:1.50548"><path
           id="path114"
           style="fill:#306998;fill-opacity:1;stroke-width:1.05384;stroke-linecap:round;paint-order:markers fill stroke"
           d="m 159.32311,238.50115 a 18.432854,18.432854 0 0 0 0.98754,0.21497 18.432854,18.432854 0 0 0 2.62309,0.18759 18.432854,18.432854 0 0 0 0.90434,-0.0222 18.432854,18.432854 0 0 0 0.90227,-0.0667 18.432854,18.432854 0 0 0 0.89814,-0.11058 18.432854,18.432854 0 0 0 0.89142,-0.15452 18.432854,18.432854 0 0 0 0.18603,-0.0419 v -1.99523 a 16.532999,16.532999 0 0 1 -1.19579,0.28732 16.532999,16.532999 0 0 1 -2.58641,0.2036 16.532999,16.532999 0 0 1 -2.5864,-0.2036 16.532999,16.532999 0 0 1 -1.02423,-0.24598 z" /><path
           id="path115"
           style="fill:#306998;fill-opacity:1;stroke-width:1.05384;stroke-linecap:round;paint-order:markers fill stroke"
           d="m 175.28906,231.39512 a 16.532999,16.532999 0 0 1 -1.30328,1.33274 16.532999,16.532999 0 0 1 -1.57665,1.2609 16.532999,16.532999 0 0 1 -1.71824,1.05937 16.532999,16.532999 0 0 1 -1.83503,0.84181 16.532999,16.532999 0 0 1 -0.88108,0.28008 v 1.99885 a 18.432854,18.432854 0 0 0 1.264,-0.37931 18.432854,18.432854 0 0 0 1.96836,-0.84956 18.432854,18.432854 0 0 0 1.85622,-1.0728 18.432854,18.432854 0 0 0 1.71927,-1.28106 18.432854,18.432854 0 0 0 0.50643,-0.47801 z" /><path
           id="path116"
           style="fill:#306998;fill-opacity:1;stroke-width:1.05384;stroke-linecap:round;paint-order:markers fill stroke"
           d="m 148.75166,232.20592 1.04128,-1.74252 a 16.532999,16.532999 0 0 1 -0.9834,-1.49707 l -0.89349,2.12287 a 18.432854,18.432854 0 0 0 0.83561,1.11672 z" /><path
           id="path117"
           style="fill:#306998;fill-opacity:1;stroke-width:1.05384;stroke-linecap:round;paint-order:markers fill stroke"
           d="m 151.19492,234.60474 1.35083,-1.35909 a 16.532999,16.532999 0 0 1 -0.9493,-0.78599 l -1.17771,1.48879 a 18.432854,18.432854 0 0 0 0.77618,0.65629 z" /><path
           id="path118"
           style="fill:#306998;fill-opacity:1;stroke-width:1.05384;stroke-linecap:round;paint-order:markers fill stroke"
           d="m 181.10834,217.4275 -1.69085,2.41587 a 16.532999,16.532999 0 0 1 0.0496,0.62735 16.532999,16.532999 0 0 1 -16.53336,16.53284 16.532999,16.532999 0 0 1 -10.38799,-3.75791 l -1.35083,1.35909 a 18.432854,18.432854 0 0 0 11.73882,4.29897 18.432854,18.432854 0 0 0 18.43299,-18.43299 18.432854,18.432854 0 0 0 -0.25838,-3.04322 z" /><path
           id="path119"
           style="fill:#360000;fill-opacity:1;stroke-width:1.05384;stroke-linecap:round;paint-order:markers fill stroke"
           d="m 180.47531,214.82352 -1.42265,2.18333 a 16.532999,16.532999 0 0 1 0.36483,2.83652 l 1.69085,-2.41587 a 18.432854,18.432854 0 0 0 -0.63303,-2.60398 z" /><path
           id="path120"
           style="fill:#4b8bbe;fill-opacity:1;stroke-width:1.05384;stroke-linecap:round;paint-order:markers fill stroke"
           d="m 167.97478,202.74576 a 18.432854,18.432854 0 0 0 -5.04104,-0.70797 18.432854,18.432854 0 0 0 -18.43246,18.43299 18.432854,18.432854 0 0 0 3.41477,10.61847 l 0.89349,-2.12287 a 16.532999,16.532999 0 0 1 -2.40864,-8.4956 16.532999,16.532999 0 0 1 16.53284,-16.53285 16.532999,16.532999 0 0 1 5.04104,0.8351 z" /><path
           id="path121"
           style="fill:#4b8bbe;fill-opacity:1;stroke-width:1.05384;stroke-linecap:round;paint-order:markers fill stroke"
           d="m 167.97478,202.74576 v 2.02727 a 16.532999,16.532999 0 0 1 7.31428,4.80797 v -2.7373 a 18.432854,18.432854 0 0 0 -7.31428,-4.09794 z" /><path
           id="path122"
           style="fill:#306998;fill-opacity:1;stroke-width:1.05384;stroke-linecap:round;paint-order:markers fill stroke"
           d="m 152.41242,233.3795 a 16.532999,16.532999 0 0 0 0.80357,0.63355 16.532999,16.532999 0 0 0 2.21227,1.35547 16.532999,16.532999 0 0 0 2.39675,0.99271 16.532999,16.532999 0 0 0 0.004,0.001 v -3.11764 l -2.98896,-2.30684 z" /><path
           id="path123"
           style="fill:#306998;fill-opacity:1;stroke-width:1.05384;stroke-linecap:round;paint-order:markers fill stroke"
           d="m 157.82863,230.99515 -3.06751,-2.53473 -3.25355,4.11189 a 16.532999,16.532999 0 0 0 0.90485,0.80719 l 2.42724,-2.44172 2.98897,2.30684 z" /><path
           id="path124"
           style="fill:#4b8bbe;fill-opacity:1;stroke-width:1.05384;stroke-linecap:round;paint-order:markers fill stroke"
           d="m 157.82863,224.67357 v -9.45627 h -7.07864 v 9.13691 l 2.04484,-4.86017 z" /><path
           id="path125"
           style="fill:#306998;fill-opacity:1;stroke-width:1.05384;stroke-linecap:round;paint-order:markers fill stroke"
           d="m 157.82863,224.67357 -5.0338,-5.17953 -2.04484,4.86017 v 4.50722 l 2.98896,-5.00228 4.08968,3.06751 z" /><path
           id="path126"
           style="fill:#306998;fill-opacity:1;stroke-width:1.05384;stroke-linecap:round;paint-order:markers fill stroke"
           d="m 159.20529,234.3076 v 2.77555 a 16.532999,16.532999 0 0 0 1.02423,0.24598 16.532999,16.532999 0 0 0 2.5864,0.2036 16.532999,16.532999 0 0 0 2.58641,-0.2036 16.532999,16.532999 0 0 0 1.19579,-0.28733 v -12.7155 l -5.89887,11.13421 z" /><path
           id="path127"
           style="fill:#306998;fill-opacity:1;stroke-width:1.05384;stroke-linecap:round;paint-order:markers fill stroke"
           d="m 166.59812,221.31253 -0.23565,-0.1664 -5.93813,11.9941 -1.21905,-1.00717 v 2.17454 l 1.49396,1.15291 5.89887,-11.13421 z" /><path
           id="path128"
           style="fill:#4b8bbe;fill-opacity:1;stroke-width:1.05384;stroke-linecap:round;paint-order:markers fill stroke"
           d="m 166.59812,213.71971 -2.04484,-1.57923 -5.34799,10.92802 v 3.68401 l 5.85907,-11.93777 1.53376,0.99839 z" /><path
           id="path129"
           style="fill:#4b8bbe;fill-opacity:1;stroke-width:1.05384;stroke-linecap:round;paint-order:markers fill stroke"
           d="m 159.20529,208.02911 v 15.03939 l 5.34799,-10.92802 2.04484,1.57923 v -5.6906 z" /><path
           id="path130"
           style="fill:#4b8bbe;fill-opacity:1;stroke-width:1.05384;stroke-linecap:round;paint-order:markers fill stroke"
           d="m 175.28906,211.19635 -5.70198,0.11834 -1.06195,3.89331 -0.55035,-0.4253 v 1.92598 l 3.73569,2.43138 z" /><path
           id="path131"
           style="fill:#306998;fill-opacity:1;stroke-width:1.05384;stroke-linecap:round;paint-order:markers fill stroke"
           d="m 167.97478,224.31597 v 11.97911 a 16.532999,16.532999 0 0 0 0.88108,-0.28009 16.532999,16.532999 0 0 0 1.83503,-0.8418 16.532999,16.532999 0 0 0 1.71824,-1.05937 16.532999,16.532999 0 0 0 1.57665,-1.26091 16.532999,16.532999 0 0 0 1.30328,-1.33273 v -5.77898 l -1.84846,2.64067 z" /><path
           id="path132"
           style="fill:#306998;fill-opacity:1;stroke-width:1.05384;stroke-linecap:round;paint-order:markers fill stroke"
           d="m 175.28906,222.78376 -2.08411,3.19929 -5.23017,-3.69693 v 2.02985 l 5.46582,4.0659 1.84846,-2.64067 z" /><path
           id="path133"
           style="fill:#4b8bbe;fill-opacity:1;stroke-width:1.05384;stroke-linecap:round;paint-order:markers fill stroke"
           d="m 167.97478,201.09723 v 13.68547 l 0.55035,0.4253 1.06195,-3.89331 5.70198,-0.11834 v -10.09912 z" /><path
           style="fill:#4b8bbe;fill-opacity:1;stroke-width:1.05384;stroke-linecap:round;paint-order:markers fill stroke"
           d="m 144.34004,239.58948 8.45494,-20.09524 5.42689,5.58419 6.33138,-12.93803 3.97186,3.06738 1.06178,-3.89321 5.70218,-0.11798 -3.57861,7.94372 -6.64598,-4.32579 -6.29205,12.82006 -5.03364,-3.77523 z"
           id="path134"
           sodipodi:nodetypes="cccccccccccc" /><path
           style="fill:#306998;fill-opacity:1;stroke-width:1.05384;stroke-linecap:round;paint-order:markers fill stroke"
           d="m 144.84452,240.99367 9.91673,-12.53326 5.66284,4.67971 5.93813,-11.99422 6.8426,4.83701 9.55606,-14.66834 -6.09543,-4.48309 8.61225,4.64039 -11.83692,16.90989 -6.44936,-4.79769 -6.29205,11.87625 -5.85947,-4.52241 z"
           id="path135"
           sodipodi:nodetypes="ccccccccccccc" /><circle
           style="fill:none;fill-opacity:0.413386;fill-rule:evenodd;stroke-width:0.150548;stroke-dashoffset:31.768;paint-order:markers fill stroke"
           id="circle135"
           cx="255.52185"
           cy="99.107346"
           r="20.5"
           transform="rotate(32.341191)" /></g><path
         style="font-weight:bold;font-size:9.17222px;line-height:1.1;font-family:'Century Gothic';-inkscape-font-specification:'Century Gothic, Bold';text-align:center;text-anchor:middle;fill:#333333;fill-rule:evenodd;stroke:#333333;stroke-width:0.150548;stroke-dashoffset:31.768;paint-order:markers fill stroke"
         d="m 139.17069,229.57726 -0.49163,-1.11457 4.45831,-1.96651 0.49162,1.11458 -0.47123,0.20785 q 0.45602,0.19045 0.74174,0.46091 0.27982,0.26817 0.44972,0.65336 0.38138,0.86461 -0.008,1.79028 -0.39368,0.92746 -1.38942,1.36668 -1.03262,0.45547 -1.96166,0.13591 -0.92904,-0.31955 -1.31403,-1.19236 -0.17713,-0.40158 -0.18096,-0.82086 -0.004,-0.41928 0.16746,-0.85216 z m 1.43662,0.77118 q 0.22955,0.5204 0.75017,0.70194 0.51652,0.18335 1.0902,-0.0697 0.57778,-0.25485 0.79703,-0.76763 0.21745,-0.51688 -0.008,-1.0291 -0.23316,-0.5286 -0.75149,-0.71604 -0.52242,-0.18564 -1.11659,0.0765 -0.58188,0.25665 -0.78884,0.76401 -0.20696,0.50736 0.028,1.04007 z m -2.8597,-4.76981 -0.0704,-1.22512 0.5589,-0.0321 q -0.36227,-0.2932 -0.55402,-0.6635 -0.192,-0.37476 -0.21795,-0.82636 -0.0262,-0.45606 0.17628,-0.83555 0.2025,-0.37949 0.61889,-0.62772 -0.44594,-0.26596 -0.69366,-0.67341 -0.24797,-0.41193 -0.27674,-0.91271 -0.0298,-0.51866 0.18903,-0.92601 0.21883,-0.40734 0.59807,-0.5996 0.37898,-0.19673 1.25534,-0.24709 l 2.85266,-0.16393 0.0707,1.22959 -2.46812,0.14183 q -0.82718,0.0475 -1.106,0.26991 -0.28328,0.22264 -0.25964,0.63399 0.018,0.31299 0.21122,0.5531 0.19299,0.23565 0.51738,0.33813 0.31993,0.10273 1.01744,0.0627 l 2.19538,-0.12616 0.0707,1.2296 -2.35635,0.1354 q -0.6528,0.0375 -0.93778,0.15259 -0.2897,0.11085 -0.42173,0.31134 -0.13204,0.20048 -0.11636,0.47323 0.0175,0.30404 0.21518,0.5439 0.19298,0.23564 0.52658,0.34208 0.33334,0.10196 1.03532,0.0616 l 2.16408,-0.12436 0.0704,1.22513 z m 0.52961,-11.52201 0.51333,0.15914 q -0.21842,-0.41469 -0.26265,-0.83165 -0.0442,-0.41696 0.0857,-0.83618 0.28247,-0.91117 1.16879,-1.33504 0.88632,-0.42388 1.96432,-0.0897 1.0395,0.32225 1.53683,1.19852 0.49305,0.87494 0.21323,1.77755 -0.12466,0.40211 -0.37325,0.70485 -0.25286,0.30141 -0.68406,0.54285 l 2.1945,0.68031 -0.35939,1.15928 -6.35678,-1.97066 z m 1.33883,-0.93067 q -0.17108,0.55184 0.0926,1.03215 0.26372,0.48031 0.87116,0.66863 0.62028,0.19229 1.118,-0.052 0.49345,-0.24558 0.66452,-0.79741 0.16577,-0.53473 -0.11078,-1.01902 -0.27523,-0.48857 -0.8784,-0.67555 -0.59889,-0.18567 -1.09101,0.0556 -0.49639,0.23998 -0.66614,0.78753 z m 0.59942,-4.68269 0.70186,-0.96815 2.82019,0.83306 -1.62414,-2.4829 0.42848,-0.59104 2.82636,0.77114 -1.64345,-2.40286 0.70712,-0.9754 2.90152,4.29955 -0.45476,0.6273 -2.85799,-0.78855 1.61988,2.49641 -0.44951,0.62005 z m 7.78399,-8.73136 q 0.5608,-0.40149 1.25316,-0.47305 0.696,-0.0742 1.3169,0.20838 0.6209,0.28255 1.01978,0.83971 0.4015,0.5608 0.47045,1.24951 0.0726,0.68612 -0.20995,1.30701 -0.28516,0.61726 -0.86416,1.03179 -0.85213,0.61007 -1.88941,0.43835 -1.03625,-0.17797 -1.65674,-1.04467 -0.66482,-0.9286 -0.42705,-2.03519 0.21136,-0.96652 0.98702,-1.52184 z m 0.68459,0.92546 q -0.46248,0.3311 -0.53998,0.87681 -0.0765,0.53945 0.28332,1.04199 0.37021,0.5171 0.90188,0.62117 0.53532,0.10146 1.00144,-0.23225 0.46612,-0.33371 0.54362,-0.87942 0.0775,-0.5457 -0.28749,-1.05552 -0.365,-0.50982 -0.89771,-0.60764 -0.53168,-0.10407 -1.00508,0.23486 z m 3.10589,-3.06552 0.96257,-0.41442 0.24263,0.56356 q 0.0129,-0.4005 0.19764,-0.68485 0.18477,-0.28434 0.49329,-0.41717 0.21802,-0.0939 0.50619,-0.0814 l 0.0665,1.11722 q -0.23995,-0.0137 -0.36747,0.0412 -0.25916,0.11158 -0.30202,0.51036 -0.0387,0.39701 0.36506,1.33491 l 0.098,0.21625 0.77925,1.80997 -1.11477,0.47995 z m 3.53232,-3.41201 1.19701,-0.24914 0.79303,3.81027 1.35289,-2.33557 1.49955,-0.3121 -1.57565,2.71588 2.81846,2.00262 -1.4864,0.30936 -2.48291,-1.7751 0.4572,2.19671 -1.19702,0.24914 z m 9.69523,1.61869 -0.77411,0.73926 q -0.45066,-0.46732 -0.82677,-0.47599 -0.20596,-0.005 -0.32444,0.0821 -0.11837,0.0824 -0.12136,0.21223 -0.002,0.0985 0.0674,0.18523 0.0743,0.0824 0.362,0.23233 l 0.44258,0.23418 q 0.6994,0.36553 0.95521,0.73429 0.25582,0.36875 0.24458,0.8568 -0.0149,0.64922 -0.50404,1.0725 -0.48461,0.42338 -1.28607,0.40492 -1.06563,-0.0245 -1.68225,-0.87198 l 0.77108,-0.80205 q 0.20914,0.25569 0.49209,0.419 0.28753,0.15893 0.5114,0.16409 0.24178,0.006 0.39222,-0.10745 0.15043,-0.11301 0.15394,-0.26524 0.006,-0.28208 -0.52013,-0.56299 l -0.40718,-0.21545 q -1.16833,-0.62272 -1.14771,-1.51821 0.0133,-0.57759 0.46595,-0.97483 0.45723,-0.40161 1.15124,-0.38563 0.47461,0.0109 0.88616,0.23096 0.41614,0.21566 0.6982,0.6119 z"
         id="text135"
         transform="matrix(0.66440714,0,0,0.66406877,-22.460113,23.974688)"
         aria-label="ampworks" /></g></g></svg>
