<?xml version="1.0" encoding="UTF-8" standalone="no"?>
<!-- Created with Inkscape (http://www.inkscape.org/) -->

<svg
   width="210mm"
   height="297mm"
   viewBox="0 0 210 297"
   version="1.1"
   id="svg1"
   xml:space="preserve"
   inkscape:version="1.3 (0e150ed6c4, 2023-07-21)"
   sodipodi:docname="logos.svg"
   xmlns:inkscape="http://www.inkscape.org/namespaces/inkscape"
   xmlns:sodipodi="http://sodipodi.sourceforge.net/DTD/sodipodi-0.dtd"
   xmlns="http://www.w3.org/2000/svg"
   xmlns:svg="http://www.w3.org/2000/svg"><sodipodi:namedview
     id="namedview1"
     pagecolor="#ffffff"
     bordercolor="#000000"
     borderopacity="0.25"
     inkscape:showpageshadow="2"
     inkscape:pageopacity="0.0"
     inkscape:pagecheckerboard="0"
     inkscape:deskcolor="#d1d1d1"
     inkscape:document-units="mm"
     inkscape:zoom="2.3787302"
     inkscape:cx="555.75871"
     inkscape:cy="853.3965"
     inkscape:window-width="958"
     inkscape:window-height="1008"
     inkscape:window-x="0"
     inkscape:window-y="304"
     inkscape:window-maximized="0"
     inkscape:current-layer="layer1" /><defs
     id="defs1"><clipPath
       clipPathUnits="userSpaceOnUse"
       id="clipPath2"><rect
         style="fill:#ff0000;fill-opacity:0.36036;stroke-width:0.7;stroke-linecap:round;paint-order:markers fill stroke"
         id="rect3"
         width="75.504646"
         height="72.673164"
         x="-180.57011"
         y="278.42328" /></clipPath><clipPath
       clipPathUnits="userSpaceOnUse"
       id="clipPath3"><rect
         style="fill:#ff0000;fill-opacity:0.36036;stroke-width:0.7;stroke-linecap:round;paint-order:markers fill stroke"
         id="rect4"
         width="75.504646"
         height="72.673164"
         x="-20.634834"
         y="246.07805" /></clipPath></defs><g
     inkscape:label="Layer 1"
     inkscape:groupmode="layer"
     id="layer1"><g
       id="g51"
       transform="translate(129.67169,-40.44126)"><path
         id="path16"
         style="fill:#360000;fill-opacity:0.563063;stroke-width:0.7;stroke-linecap:round;paint-order:markers fill stroke"
         d="m 29.65142,278.94241 a 18.432854,18.432854 0 0 0 0.987537,0.21497 18.432854,18.432854 0 0 0 2.623095,0.18759 18.432854,18.432854 0 0 0 0.904338,-0.0222 18.432854,18.432854 0 0 0 0.90227,-0.0667 18.432854,18.432854 0 0 0 0.898137,-0.11058 18.432854,18.432854 0 0 0 0.891418,-0.15452 18.432854,18.432854 0 0 0 0.186035,-0.0419 v -1.99523 a 16.532999,16.532999 0 0 1 -1.195792,0.28732 16.532999,16.532999 0 0 1 -2.586406,0.2036 16.532999,16.532999 0 0 1 -2.586405,-0.2036 16.532999,16.532999 0 0 1 -1.024227,-0.24598 z" /><path
         id="path24"
         style="fill:#360000;fill-opacity:0.563063;stroke-width:0.7;stroke-linecap:round;paint-order:markers fill stroke"
         d="m 45.617371,271.83638 a 16.532999,16.532999 0 0 1 -1.30328,1.33274 16.532999,16.532999 0 0 1 -1.576648,1.2609 16.532999,16.532999 0 0 1 -1.718241,1.05937 16.532999,16.532999 0 0 1 -1.83503,0.84181 16.532999,16.532999 0 0 1 -0.881084,0.28008 v 1.99885 a 18.432854,18.432854 0 0 0 1.264006,-0.37931 18.432854,18.432854 0 0 0 1.968355,-0.84956 18.432854,18.432854 0 0 0 1.856218,-1.0728 18.432854,18.432854 0 0 0 1.719275,-1.28106 18.432854,18.432854 0 0 0 0.506429,-0.47801 z" /><path
         id="path5"
         style="fill:#360000;fill-opacity:1;stroke-width:0.7;stroke-linecap:round;paint-order:markers fill stroke"
         d="m 19.079972,272.64718 1.04128,-1.74252 a 16.532999,16.532999 0 0 1 -0.983402,-1.49707 l -0.893486,2.12287 a 18.432854,18.432854 0 0 0 0.835608,1.11672 z" /><path
         id="path39"
         style="fill:#360000;fill-opacity:1;stroke-width:0.7;stroke-linecap:round;paint-order:markers fill stroke"
         d="m 21.523234,275.046 1.350822,-1.35909 a 16.532999,16.532999 0 0 1 -0.949296,-0.78599 l -1.177706,1.48879 a 18.432854,18.432854 0 0 0 0.77618,0.65629 z" /><path
         id="path38"
         style="fill:#102d4b;fill-opacity:1;stroke-width:0.7;stroke-linecap:round;paint-order:markers fill stroke"
         d="m 51.436654,257.86876 -1.690853,2.41587 a 16.532999,16.532999 0 0 1 0.04961,0.62735 16.532999,16.532999 0 0 1 -16.533358,16.53284 16.532999,16.532999 0 0 1 -10.387996,-3.75791 l -1.350822,1.35909 a 18.432854,18.432854 0 0 0 11.738818,4.29897 18.432854,18.432854 0 0 0 18.432984,-18.43299 18.432854,18.432854 0 0 0 -0.258382,-3.04322 z" /><path
         id="path37"
         style="fill:#360000;fill-opacity:1;stroke-width:0.7;stroke-linecap:round;paint-order:markers fill stroke"
         d="m 50.803617,255.26478 -1.422652,2.18333 a 16.532999,16.532999 0 0 1 0.364836,2.83652 l 1.690853,-2.41587 a 18.432854,18.432854 0 0 0 -0.633037,-2.60398 z" /><path
         id="path41"
         style="fill:#f68714;fill-opacity:1;stroke-width:0.7;stroke-linecap:round;paint-order:markers fill stroke"
         d="m 38.303088,243.18702 a 18.432854,18.432854 0 0 0 -5.041036,-0.70797 18.432854,18.432854 0 0 0 -18.432466,18.43299 18.432854,18.432854 0 0 0 3.414778,10.61847 l 0.893486,-2.12287 a 16.532999,16.532999 0 0 1 -2.408639,-8.4956 16.532999,16.532999 0 0 1 16.532841,-16.53285 16.532999,16.532999 0 0 1 5.041036,0.8351 z" /><path
         id="path40"
         style="fill:#360000;fill-opacity:1;stroke-width:0.7;stroke-linecap:round;paint-order:markers fill stroke"
         d="m 38.303088,243.18702 v 2.02727 a 16.532999,16.532999 0 0 1 7.314283,4.80797 v -2.7373 a 18.432854,18.432854 0 0 0 -7.314283,-4.09794 z" /><path
         id="rect5"
         style="fill:#102d4b;fill-opacity:1;stroke-width:0.7;stroke-linecap:round;paint-order:markers fill stroke"
         d="m 22.740731,273.82076 a 16.532999,16.532999 0 0 0 0.803568,0.63355 16.532999,16.532999 0 0 0 2.212268,1.35547 16.532999,16.532999 0 0 0 2.396753,0.99271 16.532999,16.532999 0 0 0 0.0036,0.001 v -3.11764 l -2.988965,-2.30684 z" /><path
         id="path28"
         style="fill:#360000;fill-opacity:1;stroke-width:0.7;stroke-linecap:round;paint-order:markers fill stroke"
         d="m 28.156938,271.43641 -3.067513,-2.53473 -3.253549,4.11189 a 16.532999,16.532999 0 0 0 0.904855,0.80719 l 2.427242,-2.44172 2.988965,2.30684 z" /><path
         id="path27"
         style="fill:#f68714;fill-opacity:1;stroke-width:0.7;stroke-linecap:round;paint-order:markers fill stroke"
         d="m 28.156938,265.11483 v -9.45627 H 21.0783 v 9.13691 l 2.044836,-4.86017 z" /><path
         id="path26"
         style="fill:#360000;fill-opacity:1;stroke-width:0.7;stroke-linecap:round;paint-order:markers fill stroke"
         d="m 28.156938,265.11483 -5.033802,-5.17953 -2.044836,4.86017 v 4.50722 l 2.988965,-5.00228 4.089673,3.06751 z" /><path
         id="rect6"
         style="fill:#102d4b;fill-opacity:1;stroke-width:0.7;stroke-linecap:round;paint-order:markers fill stroke"
         d="m 29.533598,274.74886 v 2.77555 a 16.532999,16.532999 0 0 0 1.024227,0.24598 16.532999,16.532999 0 0 0 2.586405,0.2036 16.532999,16.532999 0 0 0 2.586406,-0.2036 16.532999,16.532999 0 0 0 1.195792,-0.28733 v -12.7155 l -5.898865,11.13421 z" /><path
         id="path31"
         style="fill:#360000;fill-opacity:1;stroke-width:0.7;stroke-linecap:round;paint-order:markers fill stroke"
         d="m 36.926428,261.75379 -0.235644,-0.1664 -5.938139,11.9941 -1.219047,-1.00717 v 2.17454 l 1.493965,1.15291 5.898865,-11.13421 z" /><path
         id="path30"
         style="fill:#360000;fill-opacity:1;stroke-width:0.7;stroke-linecap:round;paint-order:markers fill stroke"
         d="m 36.926428,254.16097 -2.044836,-1.57923 -5.347994,10.92802 v 3.68401 l 5.859074,-11.93777 1.533756,0.99839 z" /><path
         id="path29"
         style="fill:#f68714;fill-opacity:1;stroke-width:0.7;stroke-linecap:round;paint-order:markers fill stroke"
         d="m 29.533598,248.47037 v 15.03939 l 5.347994,-10.92802 2.044836,1.57923 v -5.6906 z" /><path
         id="path23"
         style="fill:#360000;fill-opacity:1;stroke-width:0.7;stroke-linecap:round;paint-order:markers fill stroke"
         d="m 45.617371,251.63761 -5.701978,0.11834 -1.061951,3.89331 -0.550354,-0.4253 v 1.92598 l 3.73569,2.43138 z" /><path
         id="path33"
         style="fill:#102d4b;fill-opacity:1;stroke-width:0.7;stroke-linecap:round;paint-order:markers fill stroke"
         d="m 38.303088,264.75723 v 11.97911 a 16.532999,16.532999 0 0 0 0.881084,-0.28009 16.532999,16.532999 0 0 0 1.83503,-0.8418 16.532999,16.532999 0 0 0 1.718241,-1.05937 16.532999,16.532999 0 0 0 1.576648,-1.26091 16.532999,16.532999 0 0 0 1.30328,-1.33273 v -5.77898 l -1.848466,2.64067 z" /><path
         id="path34"
         style="fill:#360000;fill-opacity:1;stroke-width:0.7;stroke-linecap:round;paint-order:markers fill stroke"
         d="m 45.617371,263.22502 -2.084111,3.19929 -5.230172,-3.69693 v 2.02985 l 5.465817,4.0659 1.848466,-2.64067 z" /><path
         id="path32"
         style="fill:#f68714;fill-opacity:1;stroke-width:0.7;stroke-linecap:round;paint-order:markers fill stroke"
         d="m 38.303088,241.53849 v 13.68547 l 0.550354,0.4253 1.061951,-3.89331 5.701978,-0.11834 v -10.09912 z" /><path
         style="fill:#f68714;fill-opacity:1;stroke-width:0.7;stroke-linecap:round;paint-order:markers fill stroke"
         d="m 14.668346,280.03074 8.454944,-20.09524 5.426895,5.58419 6.331378,-12.93803 3.971856,3.06738 1.061784,-3.89321 5.702172,-0.11798 -3.578605,7.94372 -6.645979,-4.32579 -6.292051,12.82006 -5.033642,-3.77523 z"
         id="path8"
         sodipodi:nodetypes="cccccccccccc" /><path
         style="fill:#102d4b;fill-opacity:1;stroke-width:0.7;stroke-linecap:round;paint-order:markers fill stroke"
         d="m 15.172828,281.43493 9.916729,-12.53326 5.662847,4.67971 5.938123,-11.99422 6.842607,4.83701 9.556054,-14.66834 -6.095426,-4.48309 8.612245,4.64039 -11.836921,16.90989 -6.449353,-4.79769 -6.292054,11.87625 -5.859471,-4.52241 z"
         id="path7"
         sodipodi:nodetypes="ccccccccccccc" /></g><g
       id="g52"
       transform="translate(14.682201,113.45339)"><path
         style="fill:#f68714;fill-opacity:1;stroke-width:0.7;stroke-linecap:round;paint-order:markers fill stroke"
         d="m 114.47602,157.96983 14.19644,-12.54478 h -8.10102 l 6.56733,-12.23018 -15.45485,16.35934 h 8.17967 z"
         id="path4" /><path
         style="fill:#102d4b;fill-opacity:1;stroke-width:0.7;stroke-linecap:round;paint-order:markers fill stroke"
         d="m 125.90659,139.82671 2.6973,-4.92187 10.26086,14.76562 h -6.28443 z"
         id="path42" /><g
         id="g50"
         transform="translate(39.954529,-65.751942)"><ellipse
           style="fill:#102d4b;fill-opacity:1;stroke-width:0.7;stroke-linecap:round;paint-order:markers fill stroke"
           id="path45"
           cx="99.396843"
           cy="201.49098"
           rx="2.8502383"
           ry="2.725106" /><ellipse
           style="fill:#102d4b;fill-opacity:1;stroke-width:0.7;stroke-linecap:round;paint-order:markers fill stroke"
           id="ellipse45"
           cx="115.38599"
           cy="201.5466"
           rx="2.8502383"
           ry="2.725106" /><ellipse
           style="fill:#102d4b;fill-opacity:1;stroke-width:0.7;stroke-linecap:round;paint-order:markers fill stroke"
           id="ellipse46"
           cx="107.3219"
           cy="212.97536"
           rx="2.8502383"
           ry="2.725106" /><path
           style="fill:#102d4b;fill-opacity:1;stroke-width:0.7;stroke-linecap:round;paint-order:markers fill stroke"
           d="m 98.493113,210.25025 -3.336864,-4.75502 1.511826,-4.79133 5.442185,-0.0471 5.21164,9.59347 5.54704,-9.98224 5.2644,0.55302 4.21835,14.60137 h -5.11652 l -2.66949,-10.28866 -4.68975,9.05129 h -5.10806 l -4.940011,-8.99568 z"
           id="path46"
           sodipodi:nodetypes="cccccccccccccc" /></g><g
         id="g49"
         style="fill:#102d4b;fill-opacity:1"
         transform="translate(39.954529,-65.751942)"><path
           id="path47"
           style="fill:#102d4b;fill-opacity:1;stroke-width:0.699998;stroke-linecap:round;paint-order:markers fill stroke"
           d="m -199.08191,130.3414 a 6.0364375,8.2189932 0 0 0 -4.05039,-7.7432 v 8.00106 a 1.985929,2.7527733 0 0 1 -1.98593,2.75281 1.985929,2.7527733 0 0 1 -1.98592,-2.75281 v -8.00106 a 6.0364375,8.2189932 0 0 0 -4.0504,7.7432 6.0364375,8.2189932 0 0 0 6.03632,8.21862 6.0364375,8.2189932 0 0 0 6.03632,-8.21862 z"
           transform="rotate(-90)" /><path
           style="fill:#102d4b;fill-opacity:1;stroke-width:0.7;stroke-linecap:round;paint-order:markers fill stroke"
           d="m 122.5982,207.10415 1.25508,4.0504 h 6.48812 z"
           id="path48" /><path
           style="fill:#102d4b;fill-opacity:1;stroke-width:0.7;stroke-linecap:round;paint-order:markers fill stroke"
           d="m 122.5982,203.1323 h -1.06682 l -1.34865,-4.05039 h 10.15867 z"
           id="path49" /></g><path
         style="fill:#8d9194;fill-opacity:1;stroke-width:0.7;stroke-linecap:round;paint-order:markers fill stroke"
         d="m 117.39431,159.70014 9.06287,-8.00846 h 52.05737 v 8.17531 z"
         id="path50"
         sodipodi:nodetypes="ccccc" /></g><path
       id="path116"
       style="fill:#306998;fill-opacity:1;stroke:none;stroke-width:0.842667;stroke-dasharray:none;stroke-opacity:1"
       d="m 31.812118,44.033964 v 39.914105 h 5.56606 V 44.033964 Z m -1e-5,38.325825 v 6.46628 l 5.69836,-3.29025 v -6.46575 z m 5.69836,-3.28972 v 6.46575 L 56.911876,74.334439 V 45.351719 L 37.510468,34.15033 v 6.465755 l 13.801748,7.968504 v 22.51698 z m -0.13229,-35.036105 v 31.618225 h 0.44959 c 2.83424,0 5.11597,-2.28172 5.11597,-5.11597 v -21.38629 c 0,-2.83424 -2.28173,-5.115965 -5.11597,-5.115965 z" /><path
       id="path114"
       style="fill:#4b8bbe;fill-opacity:1;stroke:none;stroke-width:0.750001;stroke-dasharray:none;stroke-opacity:1"
       d="m 20.680498,49.149929 v 21.38629 c 0,2.83425 2.28172,5.11597 5.11596,5.11597 h 0.44959 V 44.033964 h -0.44959 c -2.83424,0 -5.11596,2.281725 -5.11596,5.115965 z m 5.56555,-13.411841 v 39.914101 h 5.56607 V 35.738088 Z m -0.1323,-1.587758 v 6.465755 l 5.69836,-3.289722 v -6.466272 z m 0,0 -19.4013896,11.201389 v 28.98272 l 19.4013896,11.20138 v -6.46575 l -13.80173,-7.9685 v -22.51697 l 13.80173,-7.968514 z" /><rect
       style="fill:#ffffff;fill-opacity:1;stroke:none;stroke-width:0.248119;stroke-dasharray:none;stroke-opacity:1"
       id="rect141"
       width="18.3013"
       height="4.158618"
       x="22.661467"
       y="68.611984"
       ry="2.0616491" /><rect
       style="fill:#ffffff;fill-opacity:1;stroke:none;stroke-width:0.248119;stroke-dasharray:none;stroke-opacity:1"
       id="rect142"
       width="18.3013"
       height="4.158618"
       x="22.661467"
       y="62.930096"
       ry="2.0616491" /><text
       xml:space="preserve"
       style="font-style:normal;font-variant:normal;font-weight:normal;font-stretch:normal;font-size:18.3507px;line-height:0.9;font-family:'Bauhaus 93';-inkscape-font-specification:'Bauhaus 93, Normal';font-variant-ligatures:normal;font-variant-caps:normal;font-variant-numeric:normal;font-variant-east-asian:normal;text-align:center;text-anchor:middle;fill:#ffffff;fill-opacity:1;stroke:none;stroke-width:0.264583;stroke-dasharray:none;stroke-opacity:1"
       x="37.378178"
       y="57.317471"
       id="text143"><tspan
         sodipodi:role="line"
         id="tspan143"
         style="stroke-width:0.264583"
         x="37.378178"
         y="57.317471">+</tspan></text><g
       id="g144"
       transform="matrix(0.16866032,0,0,0.16866032,18.674373,-1.8096235)"><path
         id="path143"
         style="fill:#306998;fill-opacity:1;stroke:none;stroke-width:0.842667;stroke-dasharray:none;stroke-opacity:1"
         d="m 83.722192,70.158031 v 39.914109 h 5.56606 V 70.158031 Z m -1e-5,38.325829 v 6.46628 l 5.69836,-3.29025 v -6.46575 z m 5.69836,-3.28972 v 6.46575 L 108.82195,100.45851 V 71.475784 L 89.420542,60.274397 v 6.465755 l 13.801748,7.968509 v 22.516974 z m -0.13229,-35.036109 v 31.618229 h 0.44959 c 2.83424,0 5.11597,-2.281725 5.11597,-5.115971 V 75.273998 c 0,-2.834245 -2.28173,-5.115967 -5.11597,-5.115967 z" /><path
         id="path144"
         style="fill:#4b8bbe;fill-opacity:1;stroke:none;stroke-width:0.750001;stroke-dasharray:none;stroke-opacity:1"
         d="m 72.590572,75.273998 v 21.386291 c 0,2.834246 2.28172,5.115971 5.11596,5.115971 h 0.44959 V 70.158031 h -0.44959 c -2.83424,0 -5.11596,2.281722 -5.11596,5.115967 z m 5.56555,-13.411843 v 39.914105 h 5.56607 V 61.862155 Z m -0.1323,-1.587758 v 6.465755 l 5.69836,-3.289722 v -6.466272 z m 0,0 -19.40139,11.201387 v 28.982726 l 19.40139,11.20138 v -6.46575 L 64.222092,97.225635 V 74.708661 l 13.80173,-7.968509 z" /></g><text
       xml:space="preserve"
       style="font-style:normal;font-variant:normal;font-weight:normal;font-stretch:normal;font-size:18.3507px;line-height:0.9;font-family:'Bauhaus 93';-inkscape-font-specification:'Bauhaus 93, Normal';font-variant-ligatures:normal;font-variant-caps:normal;font-variant-numeric:normal;font-variant-east-asian:normal;text-align:center;text-anchor:middle;fill:#333333;fill-opacity:1;stroke:none;stroke-width:0.264583;stroke-dasharray:none;stroke-opacity:1"
       x="83.502213"
       y="58.484356"
       id="text145"><tspan
         sodipodi:role="line"
         id="tspan145"
         style="font-style:normal;font-variant:normal;font-weight:900;font-stretch:normal;font-size:18.3507px;font-family:Arial;-inkscape-font-specification:'Arial, Heavy';font-variant-ligatures:normal;font-variant-caps:normal;font-variant-numeric:normal;font-variant-east-asian:normal;fill:#333333;stroke-width:0.264583"
         x="83.502213"
         y="58.484356">Amp</tspan></text><text
       xml:space="preserve"
       style="font-style:normal;font-variant:normal;font-weight:normal;font-stretch:normal;font-size:18.3507px;line-height:0.9;font-family:'Bauhaus 93';-inkscape-font-specification:'Bauhaus 93, Normal';font-variant-ligatures:normal;font-variant-caps:normal;font-variant-numeric:normal;font-variant-east-asian:normal;text-align:center;text-anchor:middle;fill:#333333;fill-opacity:1;stroke:none;stroke-width:0.264583;stroke-dasharray:none;stroke-opacity:1"
       x="92.551613"
       y="74.097824"
       id="text146"><tspan
         sodipodi:role="line"
         id="tspan146"
         style="font-style:normal;font-variant:normal;font-weight:900;font-stretch:normal;font-size:18.3507px;font-family:Arial;-inkscape-font-specification:'Arial, Heavy';font-variant-ligatures:normal;font-variant-caps:normal;font-variant-numeric:normal;font-variant-east-asian:normal;fill:#333333;stroke-width:0.264583"
         x="92.551613"
         y="74.097824">Works</tspan></text><path
       id="path146"
       style="fill:#306998;fill-opacity:1;stroke:none;stroke-width:0.750001;stroke-dasharray:none;stroke-opacity:1"
       d="m 31.812118,111.99188 v 31.61823 h 5.56606 v -31.61823 z m 5.56606,0 v 31.61823 h 0.44959 c 2.83424,0 5.11597,-2.28173 5.11597,-5.11597 v -21.38629 c 0,-2.83425 -2.28173,-5.11597 -5.11597,-5.11597 z" /><path
       id="path147"
       style="fill:#4b8bbe;fill-opacity:1;stroke:none;stroke-width:0.750001;stroke-dasharray:none;stroke-opacity:1"
       d="m 20.680498,117.10785 v 21.38629 c 0,2.83424 2.28172,5.11597 5.11596,5.11597 h 0.44959 v -31.61823 h -0.44959 c -2.83424,0 -5.11596,2.28172 -5.11596,5.11597 z m 5.56555,-5.11597 v 31.61823 h 5.56607 v -31.61823 z" /><rect
       style="fill:#ffffff;fill-opacity:1;stroke:none;stroke-width:0.248119;stroke-dasharray:none;stroke-opacity:1"
       id="rect147"
       width="18.3013"
       height="4.158618"
       x="22.661467"
       y="136.5699"
       ry="2.0616491" /><rect
       style="fill:#ffffff;fill-opacity:1;stroke:none;stroke-width:0.248119;stroke-dasharray:none;stroke-opacity:1"
       id="rect148"
       width="18.3013"
       height="4.158618"
       x="22.661467"
       y="130.88802"
       ry="2.0616491" /><text
       xml:space="preserve"
       style="font-style:normal;font-variant:normal;font-weight:normal;font-stretch:normal;font-size:18.3507px;line-height:0.9;font-family:'Bauhaus 93';-inkscape-font-specification:'Bauhaus 93, Normal';font-variant-ligatures:normal;font-variant-caps:normal;font-variant-numeric:normal;font-variant-east-asian:normal;text-align:center;text-anchor:middle;fill:#ffffff;fill-opacity:1;stroke:none;stroke-width:0.264583;stroke-dasharray:none;stroke-opacity:1"
       x="37.378178"
       y="125.27539"
       id="text148"><tspan
         sodipodi:role="line"
         id="tspan148"
         style="stroke-width:0.264583"
         x="37.378178"
         y="125.27539">+</tspan></text><rect
       style="fill:#333333;fill-opacity:1;stroke:none;stroke-width:0.130769;stroke-dasharray:none;stroke-opacity:1"
       id="rect157"
       width="8.1818886"
       height="2.2658875"
       x="27.721174"
       y="108.61328"
       ry="0.39628205" /><g
       id="g158"
       transform="translate(-5.4236096,-27.086243)"><text
         xml:space="preserve"
         style="font-style:normal;font-variant:normal;font-weight:normal;font-stretch:normal;font-size:18.3507px;line-height:0.9;font-family:'Bauhaus 93';-inkscape-font-specification:'Bauhaus 93, Normal';font-variant-ligatures:normal;font-variant-caps:normal;font-variant-numeric:normal;font-variant-east-asian:normal;text-align:center;text-anchor:middle;fill:#333333;fill-opacity:1;stroke:none;stroke-width:0.264583;stroke-dasharray:none;stroke-opacity:1"
         x="75.455429"
         y="153.53641"
         id="text157"><tspan
           sodipodi:role="line"
           id="tspan157"
           style="font-style:normal;font-variant:normal;font-weight:900;font-stretch:normal;font-size:18.3507px;font-family:Arial;-inkscape-font-specification:'Arial, Heavy';font-variant-ligatures:normal;font-variant-caps:normal;font-variant-numeric:normal;font-variant-east-asian:normal;fill:#333333;stroke-width:0.264583"
           x="75.455429"
           y="153.53641">Amp</tspan></text><text
         xml:space="preserve"
         style="font-style:normal;font-variant:normal;font-weight:normal;font-stretch:normal;font-size:18.3507px;line-height:0.9;font-family:'Bauhaus 93';-inkscape-font-specification:'Bauhaus 93, Normal';font-variant-ligatures:normal;font-variant-caps:normal;font-variant-numeric:normal;font-variant-east-asian:normal;text-align:center;text-anchor:middle;fill:#333333;fill-opacity:1;stroke:none;stroke-width:0.264583;stroke-dasharray:none;stroke-opacity:1"
         x="84.130653"
         y="169.14987"
         id="text158"><tspan
           sodipodi:role="line"
           id="tspan158"
           style="font-style:normal;font-variant:normal;font-weight:900;font-stretch:normal;font-size:18.3507px;font-family:Arial;-inkscape-font-specification:'Arial, Heavy';font-variant-ligatures:normal;font-variant-caps:normal;font-variant-numeric:normal;font-variant-east-asian:normal;fill:#333333;stroke-width:0.264583"
           x="84.130653"
           y="169.14987">Works</tspan></text></g></g></svg>
